<svg width="0" height="0" class="hidden"
  xmlns="http://www.w3.org/2000/svg">

  <symbol fill="none" viewBox="0 0 20 20" id="beds">
    <path d="M1.875 16.25V11.875C1.87696 11.2126 2.14098 10.5778 2.6094 10.1094C3.07781 9.64098 3.71256 9.37696 4.375 9.375H15.625C16.2874 9.37696 16.9222 9.64098 17.3906 10.1094C17.859 10.5778 18.123 11.2126 18.125 11.875V16.25M15 9.375H3.75V5.3125C3.75124 4.89848 3.91625 4.50177 4.20901 4.20901C4.50177 3.91625 4.89848 3.75124 5.3125 3.75H14.6875C15.1015 3.75124 15.4982 3.91625 15.791 4.20901C16.0837 4.50177 16.2488 4.89848 16.25 5.3125V9.375H15Z" stroke="current" stroke-width="1.4" stroke-linecap="round" stroke-linejoin="round"></path>
    <path d="M1.875 16.25V15.9375C1.87572 15.6891 1.97473 15.451 2.15038 15.2754C2.32604 15.0997 2.56408 15.0007 2.8125 15H17.1875C17.4359 15.0007 17.674 15.0997 17.8496 15.2754C18.0253 15.451 18.1243 15.6891 18.125 15.9375V16.25M4.375 9.375V8.75C4.37593 8.41876 4.50792 8.10136 4.74214 7.86714C4.97636 7.63292 5.29376 7.50093 5.625 7.5H8.75C9.08124 7.50093 9.39864 7.63292 9.63286 7.86714C9.86708 8.10136 9.99907 8.41876 10 8.75M10 8.75V9.375M10 8.75C10.0009 8.41876 10.1329 8.10136 10.3671 7.86714C10.6014 7.63292 10.9188 7.50093 11.25 7.5H14.375C14.7062 7.50093 15.0236 7.63292 15.2579 7.86714C15.4921 8.10136 15.6241 8.41876 15.625 8.75V9.375" stroke="current" stroke-width="1.4" stroke-linecap="round" stroke-linejoin="round"></path>
  </symbol>
  <symbol fill="current" viewBox="0 0 40 28" id="ButtonCamper">
    <path d="M2.28197 1.57469H13.14C13.2318 1.57469 13.318 1.53975 13.3831 1.47627L14.4262 0.45863C14.7294 0.162883 15.1324 0 15.5612 0H32.0257C32.7924 0 33.5042 0.371529 33.9299 0.994024L35.9032 3.88162C36.1831 4.29153 36.2088 4.81561 35.9707 5.25012C35.7327 5.68464 35.2706 5.95431 34.7657 5.95431H26.2799V6.79086H30.626C31.7781 6.79086 32.8146 7.45863 33.2666 8.49251L35.8113 14.311L38.0404 15.181C39.2308 15.6456 40 16.7537 40 18.0046V23.393C40 24.1966 39.3296 24.8506 38.5059 24.8506H35.9122C35.6106 26.6344 34.0187 28 32.1059 28C30.1932 28 28.6013 26.6344 28.2996 24.8506H14.1216C13.8199 26.6344 12.228 28 10.3153 28C8.40252 28 6.81059 26.6344 6.50895 24.8506H1.32812C0.595715 24.8506 0 24.2695 0 23.5549V3.80091C0 2.57315 1.02345 1.57469 2.28197 1.57469ZM32.1059 26.7698C33.5385 26.7698 34.7037 25.633 34.7037 24.2355C34.7037 22.838 33.5385 21.7012 32.1059 21.7012C30.6734 21.7012 29.5082 22.838 29.5082 24.2355C29.5082 25.633 30.6734 26.7698 32.1059 26.7698ZM26.2799 23.6204H28.2986C28.3037 23.5894 28.3102 23.5594 28.3163 23.5289C28.3203 23.5082 28.3238 23.4875 28.3284 23.4669C28.3385 23.4186 28.3501 23.3709 28.3622 23.3232C28.3647 23.3133 28.3667 23.3035 28.3697 23.2936C28.3849 23.2361 28.4015 23.1795 28.4192 23.1234C28.4242 23.1071 28.4303 23.0909 28.4358 23.0742C28.4489 23.0348 28.4625 22.9954 28.4767 22.9566C28.4847 22.9359 28.4928 22.9152 28.5014 22.8946C28.5145 22.8606 28.5276 22.8266 28.5422 22.7932C28.5513 22.771 28.5614 22.7494 28.5715 22.7277C28.5856 22.6957 28.5997 22.6647 28.6149 22.6333C28.626 22.6111 28.6366 22.5895 28.6482 22.5673C28.6633 22.5373 28.6794 22.5068 28.6956 22.4773C28.7072 22.4556 28.7193 22.434 28.7314 22.4123C28.748 22.3828 28.7657 22.3533 28.7834 22.3242C28.796 22.3035 28.8086 22.2829 28.8212 22.2622C28.8404 22.2327 28.8595 22.2037 28.8792 22.1741C28.8923 22.1549 28.9049 22.1357 28.918 22.117C28.9397 22.086 28.9624 22.0555 28.9856 22.025C28.9972 22.0088 29.0088 21.9925 29.0209 21.9768C29.0522 21.9364 29.084 21.8976 29.1163 21.8587C29.1208 21.8528 29.1253 21.8469 29.1304 21.841C29.1677 21.7967 29.2066 21.7534 29.2459 21.7111C29.258 21.6978 29.2706 21.6855 29.2832 21.6727C29.311 21.6437 29.3387 21.6146 29.3675 21.5861C29.3836 21.5703 29.4003 21.5551 29.4164 21.5398C29.4421 21.5152 29.4683 21.4906 29.4951 21.4665C29.5127 21.4508 29.5309 21.435 29.5491 21.4193C29.5753 21.3966 29.6015 21.3745 29.6282 21.3523L29.6858 21.3066C29.7125 21.2854 29.7397 21.2647 29.767 21.2441C29.7866 21.2293 29.8068 21.2146 29.827 21.2003C29.8547 21.1801 29.883 21.1609 29.9117 21.1412C29.9319 21.1279 29.9521 21.1142 29.9723 21.1009C30.002 21.0812 30.0328 21.0625 30.0631 21.0438C30.0827 21.032 30.1024 21.0197 30.1226 21.0079C30.1559 20.9882 30.1902 20.9695 30.2245 20.9508C30.2421 20.941 30.2593 20.9311 30.2764 20.9218C30.3253 20.8962 30.3743 20.8716 30.4237 20.8479C30.4277 20.8465 30.4313 20.8445 30.4353 20.8425C30.4888 20.8174 30.5433 20.7933 30.5977 20.7707C30.6154 20.7633 30.6335 20.7569 30.6512 20.7495C30.6885 20.7348 30.7264 20.72 30.7647 20.7057C30.7864 20.6979 30.8086 20.691 30.8303 20.6831C30.8651 20.6713 30.8999 20.6595 30.9352 20.6486C30.9589 20.6413 30.9826 20.6344 31.0068 20.6275C31.0411 20.6176 31.0754 20.6078 31.1097 20.5989C31.1344 20.5925 31.1591 20.5862 31.1844 20.5802C31.2187 20.5719 31.253 20.5645 31.2878 20.5571C31.313 20.5517 31.3382 20.5463 31.3639 20.5414C31.3992 20.535 31.4346 20.5286 31.4704 20.5232C31.4956 20.5187 31.5203 20.5148 31.546 20.5114C31.5828 20.5059 31.6202 20.5015 31.658 20.4971C31.6817 20.4946 31.7059 20.4912 31.7301 20.4892C31.7715 20.4853 31.8134 20.4823 31.8552 20.4799C31.8759 20.4784 31.8961 20.4764 31.9168 20.4759C31.9798 20.4725 32.0424 20.471 32.1059 20.471C32.1695 20.471 32.232 20.4725 32.2951 20.4759C32.3158 20.4764 32.3359 20.4784 32.3566 20.4799C32.3985 20.4823 32.4404 20.4853 32.4817 20.4892C32.5059 20.4912 32.5301 20.4946 32.5538 20.4971C32.5917 20.5015 32.629 20.5059 32.6658 20.5114C32.6916 20.5148 32.7163 20.5187 32.7415 20.5232C32.7773 20.5286 32.8126 20.535 32.8479 20.5414C32.8736 20.5463 32.8989 20.5517 32.9241 20.5571C32.9589 20.5645 32.9932 20.5719 33.0275 20.5802C33.0527 20.5862 33.0774 20.5925 33.1021 20.5989C33.1364 20.6078 33.1707 20.6176 33.205 20.6275C33.2293 20.6344 33.253 20.6413 33.2767 20.6486C33.312 20.6595 33.3468 20.6713 33.3816 20.6831C33.4033 20.691 33.4255 20.6979 33.4472 20.7057C33.4855 20.72 33.5233 20.7348 33.5607 20.7495C33.5783 20.7569 33.5965 20.7633 33.6141 20.7707C33.6686 20.7933 33.7231 20.8174 33.7765 20.8425C33.7806 20.8445 33.7841 20.8465 33.7881 20.8479C33.8376 20.8716 33.8865 20.8962 33.9354 20.9218C33.9526 20.9311 33.9697 20.941 33.9874 20.9508C34.0217 20.9695 34.056 20.9882 34.0893 21.0079C34.1095 21.0197 34.1291 21.032 34.1488 21.0438C34.1791 21.0625 34.2098 21.0812 34.2396 21.1009C34.2598 21.1142 34.2799 21.1279 34.3001 21.1412C34.3289 21.1609 34.3571 21.1801 34.3849 21.2003C34.405 21.2146 34.4252 21.2293 34.4449 21.2441C34.4721 21.2647 34.4994 21.2854 34.5261 21.3066L34.5836 21.3523C34.6103 21.3745 34.6366 21.3966 34.6628 21.4193C34.681 21.435 34.6991 21.4508 34.7168 21.4665C34.7435 21.4906 34.7697 21.5152 34.7955 21.5398C34.8116 21.5551 34.8282 21.5703 34.8444 21.5861C34.8731 21.6146 34.9009 21.6437 34.9286 21.6727C34.9412 21.6855 34.9538 21.6978 34.966 21.7111C35.0053 21.7534 35.0441 21.7967 35.0815 21.841C35.0865 21.8469 35.091 21.8528 35.0956 21.8587C35.1279 21.8976 35.1596 21.9364 35.1909 21.9768C35.203 21.9925 35.2146 22.0088 35.2262 22.025C35.2494 22.0555 35.2721 22.086 35.2938 22.117C35.3069 22.1357 35.3195 22.1549 35.3327 22.1741C35.3523 22.2037 35.3715 22.2327 35.3907 22.2622C35.4033 22.2829 35.4159 22.3035 35.4285 22.3242C35.4462 22.3533 35.4638 22.3828 35.4805 22.4123C35.4926 22.434 35.5047 22.4556 35.5163 22.4773C35.5324 22.5068 35.5486 22.5373 35.5637 22.5673C35.5753 22.5895 35.5859 22.6111 35.597 22.6333C35.6121 22.6647 35.6262 22.6957 35.6404 22.7277C35.6504 22.7494 35.6605 22.771 35.6696 22.7932C35.6842 22.8266 35.6974 22.8606 35.7105 22.8946C35.719 22.9152 35.7271 22.9359 35.7352 22.9566C35.7493 22.9954 35.7629 23.0348 35.776 23.0742C35.7816 23.0909 35.7876 23.1071 35.7927 23.1234C35.8103 23.1795 35.827 23.2361 35.8421 23.2936C35.8451 23.3035 35.8472 23.3133 35.8497 23.3232C35.8618 23.3709 35.8734 23.4186 35.8835 23.4669C35.888 23.4875 35.8916 23.5082 35.8956 23.5289C35.9016 23.5594 35.9082 23.5894 35.9132 23.6204H38.5059C38.6346 23.6204 38.739 23.5185 38.739 23.393V20.8155H37.7554V19.5852H38.739V18.0046C38.739 17.2596 38.281 16.5997 37.5723 16.3232L35.2126 15.4025H26.2799V23.6204ZM26.2799 14.1722H34.3798L32.1069 8.97526C31.8532 8.39557 31.2721 8.02109 30.626 8.02109H26.2799V14.1722ZM10.3153 26.7698C11.7478 26.7698 12.913 25.633 12.913 24.2355C12.913 22.838 11.7478 21.7012 10.3153 21.7012C10.2704 21.7012 10.226 21.7022 10.1816 21.7047C8.98815 21.7637 8.00454 22.6131 7.77049 23.7252C7.76192 23.7665 7.75385 23.8084 7.74729 23.8502C7.73418 23.9338 7.7256 24.019 7.72106 24.1051C7.71854 24.1484 7.71753 24.1917 7.71753 24.2355C7.71753 25.633 8.88272 26.7698 10.3153 26.7698ZM1.26103 19.5852H2.24464V20.8155H1.26103V23.5549C1.26103 23.5909 1.2913 23.6204 1.32812 23.6204H6.50795C6.51299 23.5899 6.51955 23.5599 6.5256 23.5298C6.52963 23.5087 6.53316 23.4875 6.5377 23.4664C6.54779 23.4191 6.55889 23.3724 6.571 23.3261C6.57402 23.3153 6.57604 23.304 6.57907 23.2931C6.5942 23.2361 6.61084 23.18 6.6285 23.1239C6.63404 23.1066 6.6401 23.0894 6.64565 23.0727C6.65876 23.0338 6.67188 22.9949 6.686 22.957C6.69407 22.9354 6.70265 22.9147 6.71072 22.8936C6.72383 22.8601 6.73745 22.8266 6.75107 22.7937C6.76066 22.771 6.77074 22.7489 6.78083 22.7268C6.79496 22.6957 6.80908 22.6647 6.82421 22.6337C6.8348 22.6111 6.84641 22.589 6.8575 22.5668C6.87263 22.5368 6.88827 22.5073 6.90442 22.4773C6.91652 22.4556 6.92862 22.434 6.94073 22.4123C6.95788 22.3828 6.97503 22.3537 6.99269 22.3247C7.00529 22.3036 7.01791 22.2829 7.03102 22.2622C7.04969 22.2327 7.06886 22.2037 7.08853 22.1751C7.10114 22.1554 7.11425 22.1357 7.12737 22.117C7.14906 22.086 7.17175 22.056 7.19395 22.026C7.20605 22.0093 7.21816 21.9925 7.23077 21.9763C7.26103 21.9374 7.29181 21.8991 7.32358 21.8612C7.32913 21.8543 7.33418 21.8474 7.33972 21.841C7.37756 21.7967 7.41589 21.7534 7.45523 21.7111C7.46784 21.6978 7.48045 21.685 7.49306 21.6717C7.52081 21.6427 7.54855 21.6141 7.5768 21.5861C7.59294 21.5703 7.60958 21.5551 7.62623 21.5393C7.65195 21.5147 7.67768 21.4906 7.70441 21.4665C7.72207 21.4508 7.74073 21.435 7.75889 21.4188C7.78461 21.3966 7.81084 21.3745 7.83758 21.3528C7.85675 21.3371 7.87592 21.3213 7.89559 21.3061C7.92182 21.2854 7.94905 21.2647 7.97629 21.2441C7.99596 21.2293 8.01614 21.2146 8.03632 21.2003C8.06406 21.1801 8.09231 21.1609 8.12055 21.1417C8.14124 21.1279 8.16141 21.1142 8.18159 21.1009C8.21135 21.0812 8.24161 21.0625 8.27188 21.0443C8.29206 21.032 8.31173 21.0197 8.3319 21.0079C8.36519 20.9882 8.39899 20.9695 8.43329 20.9508C8.45095 20.941 8.4681 20.9311 8.48625 20.9218C8.53417 20.8962 8.5826 20.8721 8.63203 20.8489C8.63607 20.847 8.6401 20.8445 8.64464 20.8425C8.69811 20.8174 8.75258 20.7933 8.80706 20.7707C8.82471 20.7633 8.84287 20.7569 8.86053 20.7495C8.89836 20.7348 8.93569 20.72 8.97402 20.7057C8.99571 20.6979 9.0179 20.691 9.0401 20.6831C9.0744 20.6713 9.10921 20.6595 9.14451 20.6486C9.16822 20.6413 9.19243 20.6344 9.21614 20.6275C9.25044 20.6176 9.28474 20.6078 9.31904 20.5989C9.34376 20.5925 9.36847 20.5862 9.39369 20.5802C9.42799 20.5719 9.4623 20.5645 9.4971 20.5571C9.52232 20.5517 9.54754 20.5463 9.57327 20.5414C9.60857 20.535 9.64388 20.5286 9.6797 20.5232C9.70492 20.5187 9.72964 20.5148 9.75536 20.5114C9.79218 20.5059 9.82951 20.5015 9.86734 20.4971C9.89105 20.4946 9.91526 20.4912 9.93947 20.4892C9.98083 20.4853 10.0227 20.4823 10.0646 20.4799C10.0852 20.4784 10.1054 20.4764 10.1261 20.4759C10.1892 20.4725 10.2517 20.471 10.3153 20.471C10.3788 20.471 10.4414 20.4725 10.5044 20.4759C10.5251 20.4764 10.5453 20.4784 10.566 20.4799C10.6078 20.4823 10.6497 20.4853 10.691 20.4892C10.7153 20.4912 10.7395 20.4946 10.7632 20.4971C10.801 20.5015 10.8383 20.5059 10.8752 20.5114C10.9009 20.5148 10.9256 20.5187 10.9508 20.5232C10.9866 20.5286 11.0219 20.535 11.0573 20.5414C11.083 20.5463 11.1082 20.5517 11.1334 20.5571C11.1682 20.5645 11.2025 20.5719 11.2368 20.5802C11.262 20.5862 11.2868 20.5925 11.3115 20.5989C11.3458 20.6078 11.3801 20.6176 11.4144 20.6275C11.4381 20.6344 11.4623 20.6413 11.486 20.6486C11.5213 20.6595 11.5561 20.6713 11.5904 20.6831C11.6126 20.691 11.6348 20.6979 11.6565 20.7057C11.6948 20.72 11.7322 20.7348 11.77 20.7495C11.7876 20.7569 11.8058 20.7633 11.8235 20.7707C11.8779 20.7933 11.9324 20.8174 11.9859 20.8425C11.9904 20.8445 11.9945 20.8465 11.9985 20.8489C12.0479 20.8721 12.0963 20.8962 12.1443 20.9218C12.1624 20.9311 12.1796 20.941 12.1972 20.9508C12.231 20.9695 12.2653 20.9882 12.2986 21.0079C12.3188 21.0197 12.3385 21.032 12.3586 21.0443C12.3889 21.0625 12.4192 21.0812 12.4489 21.1009C12.4691 21.1142 12.4893 21.1279 12.51 21.1417C12.5382 21.1609 12.5665 21.1801 12.5942 21.2003C12.6144 21.2146 12.6346 21.2293 12.6542 21.2441C12.6815 21.2647 12.7087 21.2854 12.7349 21.3061C12.7546 21.3213 12.7738 21.3371 12.7929 21.3528C12.8197 21.3745 12.8459 21.3966 12.8716 21.4193C12.8898 21.435 12.9084 21.4508 12.9261 21.4665C12.9528 21.4906 12.9786 21.5152 13.0048 21.5398C13.0209 21.5551 13.0376 21.5703 13.0537 21.5861C13.082 21.6141 13.1102 21.6432 13.138 21.6722C13.1501 21.685 13.1632 21.6978 13.1753 21.7111C13.2146 21.7534 13.253 21.7967 13.2908 21.841C13.2958 21.8474 13.3009 21.8538 13.3059 21.8597C13.3377 21.8981 13.3695 21.9369 13.3997 21.9768C13.4124 21.9925 13.424 22.0088 13.4361 22.025C13.4588 22.0555 13.4815 22.086 13.5032 22.117C13.5163 22.1357 13.5289 22.1554 13.542 22.1746C13.5617 22.2037 13.5808 22.2327 13.5995 22.2622C13.6126 22.2829 13.6252 22.3035 13.6378 22.3242C13.6555 22.3533 13.6731 22.3828 13.6898 22.4123C13.7019 22.434 13.714 22.4556 13.7256 22.4773C13.7422 22.5068 13.7579 22.5373 13.7735 22.5673C13.7846 22.5895 13.7952 22.6111 13.8063 22.6333C13.8214 22.6647 13.8356 22.6962 13.8497 22.7277C13.8598 22.7494 13.8699 22.771 13.8789 22.7932C13.8936 22.8266 13.9067 22.8606 13.9203 22.8946C13.9284 22.9152 13.9364 22.9359 13.9445 22.9566C13.9591 22.9959 13.9723 23.0353 13.9854 23.0751C13.9909 23.0914 13.997 23.1071 14.002 23.1234C14.0197 23.1795 14.0363 23.2366 14.052 23.2936C14.054 23.3025 14.056 23.3118 14.058 23.3207C14.0706 23.3694 14.0822 23.4181 14.0928 23.4673C14.0974 23.487 14.1009 23.5072 14.1044 23.5274C14.1105 23.5584 14.117 23.5889 14.1226 23.6204H25.0189V5.33919C25.0189 4.99965 25.3014 4.72408 25.6494 4.72408H34.7657C34.7813 4.72408 34.8293 4.72408 34.859 4.66946C34.8888 4.61533 34.8625 4.57645 34.8535 4.56415L32.8807 1.67656C32.6895 1.39705 32.3702 1.23023 32.0257 1.23023H15.5612C15.4694 1.23023 15.3831 1.26517 15.318 1.32865L14.2749 2.34629C13.9718 2.64204 13.5687 2.80492 13.14 2.80492H2.28197C1.71904 2.80492 1.26103 3.25174 1.26103 3.80091V19.5852Z" fill="current"></path>
    <path d="M17.6013 6.2981H21.5897C22.3953 6.2981 23.051 6.93732 23.051 7.72368V20.8886C23.051 21.2281 22.7686 21.5037 22.4205 21.5037H16.7711C16.423 21.5037 16.1406 21.2281 16.1406 20.8886V7.72368C16.1401 6.93732 16.7953 6.2981 17.6013 6.2981ZM17.4011 20.2735H21.7895V13.0397H17.4011V20.2735ZM17.4011 11.8095H21.7895V7.72368C21.7895 7.61592 21.6997 7.52832 21.5892 7.52832H17.6008C17.4904 7.52832 17.4006 7.61592 17.4006 7.72368L17.4011 11.8095Z" fill="current"></path>
  </symbol>
  <symbol fill="current" viewBox="0 0 40 28" id="ButtonCamper2">
    <path d="M2.28197 1.57469H13.14C13.2318 1.57469 13.318 1.53975 13.3831 1.47627L14.4262 0.45863C14.7294 0.162883 15.1324 0 15.5612 0H32.0257C32.7924 0 33.5042 0.371529 33.9299 0.994024L35.9032 3.88162C36.1831 4.29153 36.2088 4.81561 35.9707 5.25012C35.7327 5.68464 35.2706 5.95431 34.7657 5.95431H26.2799V6.79086H30.626C31.7781 6.79086 32.8146 7.45863 33.2666 8.49251L35.8113 14.311L38.0404 15.181C39.2308 15.6456 40 16.7537 40 18.0046V23.393C40 24.1966 39.3296 24.8506 38.5059 24.8506H35.9122C35.6106 26.6344 34.0187 28 32.1059 28C30.1932 28 28.6013 26.6344 28.2996 24.8506H14.1216C13.8199 26.6344 12.228 28 10.3153 28C8.40252 28 6.81059 26.6344 6.50895 24.8506H1.32812C0.595715 24.8506 0 24.2695 0 23.5549V3.80091C0 2.57315 1.02345 1.57469 2.28197 1.57469ZM32.1059 26.7698C33.5385 26.7698 34.7037 25.633 34.7037 24.2355C34.7037 22.838 33.5385 21.7012 32.1059 21.7012C30.6734 21.7012 29.5082 22.838 29.5082 24.2355C29.5082 25.633 30.6734 26.7698 32.1059 26.7698ZM26.2799 23.6204H28.2986C28.3037 23.5894 28.3102 23.5594 28.3163 23.5289C28.3203 23.5082 28.3238 23.4875 28.3284 23.4669C28.3385 23.4186 28.3501 23.3709 28.3622 23.3232C28.3647 23.3133 28.3667 23.3035 28.3697 23.2936C28.3849 23.2361 28.4015 23.1795 28.4192 23.1234C28.4242 23.1071 28.4303 23.0909 28.4358 23.0742C28.4489 23.0348 28.4625 22.9954 28.4767 22.9566C28.4847 22.9359 28.4928 22.9152 28.5014 22.8946C28.5145 22.8606 28.5276 22.8266 28.5422 22.7932C28.5513 22.771 28.5614 22.7494 28.5715 22.7277C28.5856 22.6957 28.5997 22.6647 28.6149 22.6333C28.626 22.6111 28.6366 22.5895 28.6482 22.5673C28.6633 22.5373 28.6794 22.5068 28.6956 22.4773C28.7072 22.4556 28.7193 22.434 28.7314 22.4123C28.748 22.3828 28.7657 22.3533 28.7834 22.3242C28.796 22.3035 28.8086 22.2829 28.8212 22.2622C28.8404 22.2327 28.8595 22.2037 28.8792 22.1741C28.8923 22.1549 28.9049 22.1357 28.918 22.117C28.9397 22.086 28.9624 22.0555 28.9856 22.025C28.9972 22.0088 29.0088 21.9925 29.0209 21.9768C29.0522 21.9364 29.084 21.8976 29.1163 21.8587C29.1208 21.8528 29.1253 21.8469 29.1304 21.841C29.1677 21.7967 29.2066 21.7534 29.2459 21.7111C29.258 21.6978 29.2706 21.6855 29.2832 21.6727C29.311 21.6437 29.3387 21.6146 29.3675 21.5861C29.3836 21.5703 29.4003 21.5551 29.4164 21.5398C29.4421 21.5152 29.4683 21.4906 29.4951 21.4665C29.5127 21.4508 29.5309 21.435 29.5491 21.4193C29.5753 21.3966 29.6015 21.3745 29.6282 21.3523L29.6858 21.3066C29.7125 21.2854 29.7397 21.2647 29.767 21.2441C29.7866 21.2293 29.8068 21.2146 29.827 21.2003C29.8547 21.1801 29.883 21.1609 29.9117 21.1412C29.9319 21.1279 29.9521 21.1142 29.9723 21.1009C30.002 21.0812 30.0328 21.0625 30.0631 21.0438C30.0827 21.032 30.1024 21.0197 30.1226 21.0079C30.1559 20.9882 30.1902 20.9695 30.2245 20.9508C30.2421 20.941 30.2593 20.9311 30.2764 20.9218C30.3253 20.8962 30.3743 20.8716 30.4237 20.8479C30.4277 20.8465 30.4313 20.8445 30.4353 20.8425C30.4888 20.8174 30.5433 20.7933 30.5977 20.7707C30.6154 20.7633 30.6335 20.7569 30.6512 20.7495C30.6885 20.7348 30.7264 20.72 30.7647 20.7057C30.7864 20.6979 30.8086 20.691 30.8303 20.6831C30.8651 20.6713 30.8999 20.6595 30.9352 20.6486C30.9589 20.6413 30.9826 20.6344 31.0068 20.6275C31.0411 20.6176 31.0754 20.6078 31.1097 20.5989C31.1344 20.5925 31.1591 20.5862 31.1844 20.5802C31.2187 20.5719 31.253 20.5645 31.2878 20.5571C31.313 20.5517 31.3382 20.5463 31.3639 20.5414C31.3992 20.535 31.4346 20.5286 31.4704 20.5232C31.4956 20.5187 31.5203 20.5148 31.546 20.5114C31.5828 20.5059 31.6202 20.5015 31.658 20.4971C31.6817 20.4946 31.7059 20.4912 31.7301 20.4892C31.7715 20.4853 31.8134 20.4823 31.8552 20.4799C31.8759 20.4784 31.8961 20.4764 31.9168 20.4759C31.9798 20.4725 32.0424 20.471 32.1059 20.471C32.1695 20.471 32.232 20.4725 32.2951 20.4759C32.3158 20.4764 32.3359 20.4784 32.3566 20.4799C32.3985 20.4823 32.4404 20.4853 32.4817 20.4892C32.5059 20.4912 32.5301 20.4946 32.5538 20.4971C32.5917 20.5015 32.629 20.5059 32.6658 20.5114C32.6916 20.5148 32.7163 20.5187 32.7415 20.5232C32.7773 20.5286 32.8126 20.535 32.8479 20.5414C32.8736 20.5463 32.8989 20.5517 32.9241 20.5571C32.9589 20.5645 32.9932 20.5719 33.0275 20.5802C33.0527 20.5862 33.0774 20.5925 33.1021 20.5989C33.1364 20.6078 33.1707 20.6176 33.205 20.6275C33.2293 20.6344 33.253 20.6413 33.2767 20.6486C33.312 20.6595 33.3468 20.6713 33.3816 20.6831C33.4033 20.691 33.4255 20.6979 33.4472 20.7057C33.4855 20.72 33.5233 20.7348 33.5607 20.7495C33.5783 20.7569 33.5965 20.7633 33.6141 20.7707C33.6686 20.7933 33.7231 20.8174 33.7765 20.8425C33.7806 20.8445 33.7841 20.8465 33.7881 20.8479C33.8376 20.8716 33.8865 20.8962 33.9354 20.9218C33.9526 20.9311 33.9697 20.941 33.9874 20.9508C34.0217 20.9695 34.056 20.9882 34.0893 21.0079C34.1095 21.0197 34.1291 21.032 34.1488 21.0438C34.1791 21.0625 34.2098 21.0812 34.2396 21.1009C34.2598 21.1142 34.2799 21.1279 34.3001 21.1412C34.3289 21.1609 34.3571 21.1801 34.3849 21.2003C34.405 21.2146 34.4252 21.2293 34.4449 21.2441C34.4721 21.2647 34.4994 21.2854 34.5261 21.3066L34.5836 21.3523C34.6103 21.3745 34.6366 21.3966 34.6628 21.4193C34.681 21.435 34.6991 21.4508 34.7168 21.4665C34.7435 21.4906 34.7697 21.5152 34.7955 21.5398C34.8116 21.5551 34.8282 21.5703 34.8444 21.5861C34.8731 21.6146 34.9009 21.6437 34.9286 21.6727C34.9412 21.6855 34.9538 21.6978 34.966 21.7111C35.0053 21.7534 35.0441 21.7967 35.0815 21.841C35.0865 21.8469 35.091 21.8528 35.0956 21.8587C35.1279 21.8976 35.1596 21.9364 35.1909 21.9768C35.203 21.9925 35.2146 22.0088 35.2262 22.025C35.2494 22.0555 35.2721 22.086 35.2938 22.117C35.3069 22.1357 35.3195 22.1549 35.3327 22.1741C35.3523 22.2037 35.3715 22.2327 35.3907 22.2622C35.4033 22.2829 35.4159 22.3035 35.4285 22.3242C35.4462 22.3533 35.4638 22.3828 35.4805 22.4123C35.4926 22.434 35.5047 22.4556 35.5163 22.4773C35.5324 22.5068 35.5486 22.5373 35.5637 22.5673C35.5753 22.5895 35.5859 22.6111 35.597 22.6333C35.6121 22.6647 35.6262 22.6957 35.6404 22.7277C35.6504 22.7494 35.6605 22.771 35.6696 22.7932C35.6842 22.8266 35.6974 22.8606 35.7105 22.8946C35.719 22.9152 35.7271 22.9359 35.7352 22.9566C35.7493 22.9954 35.7629 23.0348 35.776 23.0742C35.7816 23.0909 35.7876 23.1071 35.7927 23.1234C35.8103 23.1795 35.827 23.2361 35.8421 23.2936C35.8451 23.3035 35.8472 23.3133 35.8497 23.3232C35.8618 23.3709 35.8734 23.4186 35.8835 23.4669C35.888 23.4875 35.8916 23.5082 35.8956 23.5289C35.9016 23.5594 35.9082 23.5894 35.9132 23.6204H38.5059C38.6346 23.6204 38.739 23.5185 38.739 23.393V20.8155H37.7554V19.5852H38.739V18.0046C38.739 17.2596 38.281 16.5997 37.5723 16.3232L35.2126 15.4025H26.2799V23.6204ZM26.2799 14.1722H34.3798L32.1069 8.97526C31.8532 8.39557 31.2721 8.02109 30.626 8.02109H26.2799V14.1722ZM10.3153 26.7698C11.7478 26.7698 12.913 25.633 12.913 24.2355C12.913 22.838 11.7478 21.7012 10.3153 21.7012C10.2704 21.7012 10.226 21.7022 10.1816 21.7047C8.98815 21.7637 8.00454 22.6131 7.77049 23.7252C7.76192 23.7665 7.75385 23.8084 7.74729 23.8502C7.73418 23.9338 7.7256 24.019 7.72106 24.1051C7.71854 24.1484 7.71753 24.1917 7.71753 24.2355C7.71753 25.633 8.88272 26.7698 10.3153 26.7698ZM1.26103 19.5852H2.24464V20.8155H1.26103V23.5549C1.26103 23.5909 1.2913 23.6204 1.32812 23.6204H6.50795C6.51299 23.5899 6.51955 23.5599 6.5256 23.5298C6.52963 23.5087 6.53316 23.4875 6.5377 23.4664C6.54779 23.4191 6.55889 23.3724 6.571 23.3261C6.57402 23.3153 6.57604 23.304 6.57907 23.2931C6.5942 23.2361 6.61084 23.18 6.6285 23.1239C6.63404 23.1066 6.6401 23.0894 6.64565 23.0727C6.65876 23.0338 6.67188 22.9949 6.686 22.957C6.69407 22.9354 6.70265 22.9147 6.71072 22.8936C6.72383 22.8601 6.73745 22.8266 6.75107 22.7937C6.76066 22.771 6.77074 22.7489 6.78083 22.7268C6.79496 22.6957 6.80908 22.6647 6.82421 22.6337C6.8348 22.6111 6.84641 22.589 6.8575 22.5668C6.87263 22.5368 6.88827 22.5073 6.90442 22.4773C6.91652 22.4556 6.92862 22.434 6.94073 22.4123C6.95788 22.3828 6.97503 22.3537 6.99269 22.3247C7.00529 22.3036 7.01791 22.2829 7.03102 22.2622C7.04969 22.2327 7.06886 22.2037 7.08853 22.1751C7.10114 22.1554 7.11425 22.1357 7.12737 22.117C7.14906 22.086 7.17175 22.056 7.19395 22.026C7.20605 22.0093 7.21816 21.9925 7.23077 21.9763C7.26103 21.9374 7.29181 21.8991 7.32358 21.8612C7.32913 21.8543 7.33418 21.8474 7.33972 21.841C7.37756 21.7967 7.41589 21.7534 7.45523 21.7111C7.46784 21.6978 7.48045 21.685 7.49306 21.6717C7.52081 21.6427 7.54855 21.6141 7.5768 21.5861C7.59294 21.5703 7.60958 21.5551 7.62623 21.5393C7.65195 21.5147 7.67768 21.4906 7.70441 21.4665C7.72207 21.4508 7.74073 21.435 7.75889 21.4188C7.78461 21.3966 7.81084 21.3745 7.83758 21.3528C7.85675 21.3371 7.87592 21.3213 7.89559 21.3061C7.92182 21.2854 7.94905 21.2647 7.97629 21.2441C7.99596 21.2293 8.01614 21.2146 8.03632 21.2003C8.06406 21.1801 8.09231 21.1609 8.12055 21.1417C8.14124 21.1279 8.16141 21.1142 8.18159 21.1009C8.21135 21.0812 8.24161 21.0625 8.27188 21.0443C8.29206 21.032 8.31173 21.0197 8.3319 21.0079C8.36519 20.9882 8.39899 20.9695 8.43329 20.9508C8.45095 20.941 8.4681 20.9311 8.48625 20.9218C8.53417 20.8962 8.5826 20.8721 8.63203 20.8489C8.63607 20.847 8.6401 20.8445 8.64464 20.8425C8.69811 20.8174 8.75258 20.7933 8.80706 20.7707C8.82471 20.7633 8.84287 20.7569 8.86053 20.7495C8.89836 20.7348 8.93569 20.72 8.97402 20.7057C8.99571 20.6979 9.0179 20.691 9.0401 20.6831C9.0744 20.6713 9.10921 20.6595 9.14451 20.6486C9.16822 20.6413 9.19243 20.6344 9.21614 20.6275C9.25044 20.6176 9.28474 20.6078 9.31904 20.5989C9.34376 20.5925 9.36847 20.5862 9.39369 20.5802C9.42799 20.5719 9.4623 20.5645 9.4971 20.5571C9.52232 20.5517 9.54754 20.5463 9.57327 20.5414C9.60857 20.535 9.64388 20.5286 9.6797 20.5232C9.70492 20.5187 9.72964 20.5148 9.75536 20.5114C9.79218 20.5059 9.82951 20.5015 9.86734 20.4971C9.89105 20.4946 9.91526 20.4912 9.93947 20.4892C9.98083 20.4853 10.0227 20.4823 10.0646 20.4799C10.0852 20.4784 10.1054 20.4764 10.1261 20.4759C10.1892 20.4725 10.2517 20.471 10.3153 20.471C10.3788 20.471 10.4414 20.4725 10.5044 20.4759C10.5251 20.4764 10.5453 20.4784 10.566 20.4799C10.6078 20.4823 10.6497 20.4853 10.691 20.4892C10.7153 20.4912 10.7395 20.4946 10.7632 20.4971C10.801 20.5015 10.8383 20.5059 10.8752 20.5114C10.9009 20.5148 10.9256 20.5187 10.9508 20.5232C10.9866 20.5286 11.0219 20.535 11.0573 20.5414C11.083 20.5463 11.1082 20.5517 11.1334 20.5571C11.1682 20.5645 11.2025 20.5719 11.2368 20.5802C11.262 20.5862 11.2868 20.5925 11.3115 20.5989C11.3458 20.6078 11.3801 20.6176 11.4144 20.6275C11.4381 20.6344 11.4623 20.6413 11.486 20.6486C11.5213 20.6595 11.5561 20.6713 11.5904 20.6831C11.6126 20.691 11.6348 20.6979 11.6565 20.7057C11.6948 20.72 11.7322 20.7348 11.77 20.7495C11.7876 20.7569 11.8058 20.7633 11.8235 20.7707C11.8779 20.7933 11.9324 20.8174 11.9859 20.8425C11.9904 20.8445 11.9945 20.8465 11.9985 20.8489C12.0479 20.8721 12.0963 20.8962 12.1443 20.9218C12.1624 20.9311 12.1796 20.941 12.1972 20.9508C12.231 20.9695 12.2653 20.9882 12.2986 21.0079C12.3188 21.0197 12.3385 21.032 12.3586 21.0443C12.3889 21.0625 12.4192 21.0812 12.4489 21.1009C12.4691 21.1142 12.4893 21.1279 12.51 21.1417C12.5382 21.1609 12.5665 21.1801 12.5942 21.2003C12.6144 21.2146 12.6346 21.2293 12.6542 21.2441C12.6815 21.2647 12.7087 21.2854 12.7349 21.3061C12.7546 21.3213 12.7738 21.3371 12.7929 21.3528C12.8197 21.3745 12.8459 21.3966 12.8716 21.4193C12.8898 21.435 12.9084 21.4508 12.9261 21.4665C12.9528 21.4906 12.9786 21.5152 13.0048 21.5398C13.0209 21.5551 13.0376 21.5703 13.0537 21.5861C13.082 21.6141 13.1102 21.6432 13.138 21.6722C13.1501 21.685 13.1632 21.6978 13.1753 21.7111C13.2146 21.7534 13.253 21.7967 13.2908 21.841C13.2958 21.8474 13.3009 21.8538 13.3059 21.8597C13.3377 21.8981 13.3695 21.9369 13.3997 21.9768C13.4124 21.9925 13.424 22.0088 13.4361 22.025C13.4588 22.0555 13.4815 22.086 13.5032 22.117C13.5163 22.1357 13.5289 22.1554 13.542 22.1746C13.5617 22.2037 13.5808 22.2327 13.5995 22.2622C13.6126 22.2829 13.6252 22.3035 13.6378 22.3242C13.6555 22.3533 13.6731 22.3828 13.6898 22.4123C13.7019 22.434 13.714 22.4556 13.7256 22.4773C13.7422 22.5068 13.7579 22.5373 13.7735 22.5673C13.7846 22.5895 13.7952 22.6111 13.8063 22.6333C13.8214 22.6647 13.8356 22.6962 13.8497 22.7277C13.8598 22.7494 13.8699 22.771 13.8789 22.7932C13.8936 22.8266 13.9067 22.8606 13.9203 22.8946C13.9284 22.9152 13.9364 22.9359 13.9445 22.9566C13.9591 22.9959 13.9723 23.0353 13.9854 23.0751C13.9909 23.0914 13.997 23.1071 14.002 23.1234C14.0197 23.1795 14.0363 23.2366 14.052 23.2936C14.054 23.3025 14.056 23.3118 14.058 23.3207C14.0706 23.3694 14.0822 23.4181 14.0928 23.4673C14.0974 23.487 14.1009 23.5072 14.1044 23.5274C14.1105 23.5584 14.117 23.5889 14.1226 23.6204H25.0189V5.33919C25.0189 4.99965 25.3014 4.72408 25.6494 4.72408H34.7657C34.7813 4.72408 34.8293 4.72408 34.859 4.66946C34.8888 4.61533 34.8625 4.57645 34.8535 4.56415L32.8807 1.67656C32.6895 1.39705 32.3702 1.23023 32.0257 1.23023H15.5612C15.4694 1.23023 15.3831 1.26517 15.318 1.32865L14.2749 2.34629C13.9718 2.64204 13.5687 2.80492 13.14 2.80492H2.28197C1.71904 2.80492 1.26103 3.25174 1.26103 3.80091V19.5852Z" fill="current"></path>
    <path d="M4.84372 6.2981H12.5562C13.4475 6.2981 14.1729 7.00572 14.1729 7.87525V11.4631C14.1729 12.3326 13.4475 13.0402 12.5562 13.0402H4.84321C3.95192 13.0402 3.22657 12.3326 3.22657 11.4631V7.87525C3.22707 7.00572 3.95242 6.2981 4.84372 6.2981ZM4.48811 11.4626C4.48811 11.6535 4.6475 11.8095 4.84372 11.8095H12.5562C12.7524 11.8095 12.9118 11.654 12.9118 11.4626V7.87476C12.9118 7.68382 12.7524 7.52783 12.5562 7.52783H4.84321C4.647 7.52783 4.4876 7.68333 4.4876 7.87476L4.48811 11.4626Z" fill="current"></path>
  </symbol>
  <symbol fill="current" viewBox="0 0 40 28" id="camper1">
    <path d="M2.28197 1.57469H13.14C13.2318 1.57469 13.318 1.53975 13.3831 1.47627L14.4262 0.45863C14.7294 0.162883 15.1324 0 15.5612 0H32.0257C32.7924 0 33.5042 0.371529 33.9299 0.994024L35.9032 3.88162C36.1831 4.29153 36.2088 4.81561 35.9707 5.25012C35.7327 5.68464 35.2706 5.95431 34.7657 5.95431H26.2799V6.79086H30.626C31.7781 6.79086 32.8146 7.45863 33.2666 8.49251L35.8113 14.311L38.0404 15.181C39.2308 15.6456 40 16.7537 40 18.0046V23.393C40 24.1966 39.3296 24.8506 38.5059 24.8506H35.9122C35.6106 26.6344 34.0187 28 32.1059 28C30.1932 28 28.6013 26.6344 28.2996 24.8506H14.1216C13.8199 26.6344 12.228 28 10.3153 28C8.40252 28 6.81059 26.6344 6.50895 24.8506H1.32812C0.595715 24.8506 0 24.2695 0 23.5549V3.80091C0 2.57315 1.02345 1.57469 2.28197 1.57469ZM32.1059 26.7698C33.5385 26.7698 34.7037 25.633 34.7037 24.2355C34.7037 22.838 33.5385 21.7012 32.1059 21.7012C30.6734 21.7012 29.5082 22.838 29.5082 24.2355C29.5082 25.633 30.6734 26.7698 32.1059 26.7698ZM26.2799 23.6204H28.2986C28.3037 23.5894 28.3102 23.5594 28.3163 23.5289C28.3203 23.5082 28.3238 23.4875 28.3284 23.4669C28.3385 23.4186 28.3501 23.3709 28.3622 23.3232C28.3647 23.3133 28.3667 23.3035 28.3697 23.2936C28.3849 23.2361 28.4015 23.1795 28.4192 23.1234C28.4242 23.1071 28.4303 23.0909 28.4358 23.0742C28.4489 23.0348 28.4625 22.9954 28.4767 22.9566C28.4847 22.9359 28.4928 22.9152 28.5014 22.8946C28.5145 22.8606 28.5276 22.8266 28.5422 22.7932C28.5513 22.771 28.5614 22.7494 28.5715 22.7277C28.5856 22.6957 28.5997 22.6647 28.6149 22.6333C28.626 22.6111 28.6366 22.5895 28.6482 22.5673C28.6633 22.5373 28.6794 22.5068 28.6956 22.4773C28.7072 22.4556 28.7193 22.434 28.7314 22.4123C28.748 22.3828 28.7657 22.3533 28.7834 22.3242C28.796 22.3035 28.8086 22.2829 28.8212 22.2622C28.8404 22.2327 28.8595 22.2037 28.8792 22.1741C28.8923 22.1549 28.9049 22.1357 28.918 22.117C28.9397 22.086 28.9624 22.0555 28.9856 22.025C28.9972 22.0088 29.0088 21.9925 29.0209 21.9768C29.0522 21.9364 29.084 21.8976 29.1163 21.8587C29.1208 21.8528 29.1253 21.8469 29.1304 21.841C29.1677 21.7967 29.2066 21.7534 29.2459 21.7111C29.258 21.6978 29.2706 21.6855 29.2832 21.6727C29.311 21.6437 29.3387 21.6146 29.3675 21.5861C29.3836 21.5703 29.4003 21.5551 29.4164 21.5398C29.4421 21.5152 29.4683 21.4906 29.4951 21.4665C29.5127 21.4508 29.5309 21.435 29.5491 21.4193C29.5753 21.3966 29.6015 21.3745 29.6282 21.3523L29.6858 21.3066C29.7125 21.2854 29.7397 21.2647 29.767 21.2441C29.7866 21.2293 29.8068 21.2146 29.827 21.2003C29.8547 21.1801 29.883 21.1609 29.9117 21.1412C29.9319 21.1279 29.9521 21.1142 29.9723 21.1009C30.002 21.0812 30.0328 21.0625 30.0631 21.0438C30.0827 21.032 30.1024 21.0197 30.1226 21.0079C30.1559 20.9882 30.1902 20.9695 30.2245 20.9508C30.2421 20.941 30.2593 20.9311 30.2764 20.9218C30.3253 20.8962 30.3743 20.8716 30.4237 20.8479C30.4277 20.8465 30.4313 20.8445 30.4353 20.8425C30.4888 20.8174 30.5433 20.7933 30.5977 20.7707C30.6154 20.7633 30.6335 20.7569 30.6512 20.7495C30.6885 20.7348 30.7264 20.72 30.7647 20.7057C30.7864 20.6979 30.8086 20.691 30.8303 20.6831C30.8651 20.6713 30.8999 20.6595 30.9352 20.6486C30.9589 20.6413 30.9826 20.6344 31.0068 20.6275C31.0411 20.6176 31.0754 20.6078 31.1097 20.5989C31.1344 20.5925 31.1591 20.5862 31.1844 20.5802C31.2187 20.5719 31.253 20.5645 31.2878 20.5571C31.313 20.5517 31.3382 20.5463 31.3639 20.5414C31.3992 20.535 31.4346 20.5286 31.4704 20.5232C31.4956 20.5187 31.5203 20.5148 31.546 20.5114C31.5828 20.5059 31.6202 20.5015 31.658 20.4971C31.6817 20.4946 31.7059 20.4912 31.7301 20.4892C31.7715 20.4853 31.8134 20.4823 31.8552 20.4799C31.8759 20.4784 31.8961 20.4764 31.9168 20.4759C31.9798 20.4725 32.0424 20.471 32.1059 20.471C32.1695 20.471 32.232 20.4725 32.2951 20.4759C32.3158 20.4764 32.3359 20.4784 32.3566 20.4799C32.3985 20.4823 32.4404 20.4853 32.4817 20.4892C32.5059 20.4912 32.5301 20.4946 32.5538 20.4971C32.5917 20.5015 32.629 20.5059 32.6658 20.5114C32.6916 20.5148 32.7163 20.5187 32.7415 20.5232C32.7773 20.5286 32.8126 20.535 32.8479 20.5414C32.8736 20.5463 32.8989 20.5517 32.9241 20.5571C32.9589 20.5645 32.9932 20.5719 33.0275 20.5802C33.0527 20.5862 33.0774 20.5925 33.1021 20.5989C33.1364 20.6078 33.1707 20.6176 33.205 20.6275C33.2293 20.6344 33.253 20.6413 33.2767 20.6486C33.312 20.6595 33.3468 20.6713 33.3816 20.6831C33.4033 20.691 33.4255 20.6979 33.4472 20.7057C33.4855 20.72 33.5233 20.7348 33.5607 20.7495C33.5783 20.7569 33.5965 20.7633 33.6141 20.7707C33.6686 20.7933 33.7231 20.8174 33.7765 20.8425C33.7806 20.8445 33.7841 20.8465 33.7881 20.8479C33.8376 20.8716 33.8865 20.8962 33.9354 20.9218C33.9526 20.9311 33.9697 20.941 33.9874 20.9508C34.0217 20.9695 34.056 20.9882 34.0893 21.0079C34.1095 21.0197 34.1291 21.032 34.1488 21.0438C34.1791 21.0625 34.2098 21.0812 34.2396 21.1009C34.2598 21.1142 34.2799 21.1279 34.3001 21.1412C34.3289 21.1609 34.3571 21.1801 34.3849 21.2003C34.405 21.2146 34.4252 21.2293 34.4449 21.2441C34.4721 21.2647 34.4994 21.2854 34.5261 21.3066L34.5836 21.3523C34.6103 21.3745 34.6366 21.3966 34.6628 21.4193C34.681 21.435 34.6991 21.4508 34.7168 21.4665C34.7435 21.4906 34.7697 21.5152 34.7955 21.5398C34.8116 21.5551 34.8282 21.5703 34.8444 21.5861C34.8731 21.6146 34.9009 21.6437 34.9286 21.6727C34.9412 21.6855 34.9538 21.6978 34.966 21.7111C35.0053 21.7534 35.0441 21.7967 35.0815 21.841C35.0865 21.8469 35.091 21.8528 35.0956 21.8587C35.1279 21.8976 35.1596 21.9364 35.1909 21.9768C35.203 21.9925 35.2146 22.0088 35.2262 22.025C35.2494 22.0555 35.2721 22.086 35.2938 22.117C35.3069 22.1357 35.3195 22.1549 35.3327 22.1741C35.3523 22.2037 35.3715 22.2327 35.3907 22.2622C35.4033 22.2829 35.4159 22.3035 35.4285 22.3242C35.4462 22.3533 35.4638 22.3828 35.4805 22.4123C35.4926 22.434 35.5047 22.4556 35.5163 22.4773C35.5324 22.5068 35.5486 22.5373 35.5637 22.5673C35.5753 22.5895 35.5859 22.6111 35.597 22.6333C35.6121 22.6647 35.6262 22.6957 35.6404 22.7277C35.6504 22.7494 35.6605 22.771 35.6696 22.7932C35.6842 22.8266 35.6974 22.8606 35.7105 22.8946C35.719 22.9152 35.7271 22.9359 35.7352 22.9566C35.7493 22.9954 35.7629 23.0348 35.776 23.0742C35.7816 23.0909 35.7876 23.1071 35.7927 23.1234C35.8103 23.1795 35.827 23.2361 35.8421 23.2936C35.8451 23.3035 35.8472 23.3133 35.8497 23.3232C35.8618 23.3709 35.8734 23.4186 35.8835 23.4669C35.888 23.4875 35.8916 23.5082 35.8956 23.5289C35.9016 23.5594 35.9082 23.5894 35.9132 23.6204H38.5059C38.6346 23.6204 38.739 23.5185 38.739 23.393V20.8155H37.7554V19.5852H38.739V18.0046C38.739 17.2596 38.281 16.5997 37.5723 16.3232L35.2126 15.4025H26.2799V23.6204ZM26.2799 14.1722H34.3798L32.1069 8.97526C31.8532 8.39557 31.2721 8.02109 30.626 8.02109H26.2799V14.1722ZM10.3153 26.7698C11.7478 26.7698 12.913 25.633 12.913 24.2355C12.913 22.838 11.7478 21.7012 10.3153 21.7012C10.2704 21.7012 10.226 21.7022 10.1816 21.7047C8.98815 21.7637 8.00454 22.6131 7.77049 23.7252C7.76192 23.7665 7.75385 23.8084 7.74729 23.8502C7.73418 23.9338 7.7256 24.019 7.72106 24.1051C7.71854 24.1484 7.71753 24.1917 7.71753 24.2355C7.71753 25.633 8.88272 26.7698 10.3153 26.7698ZM1.26103 19.5852H2.24464V20.8155H1.26103V23.5549C1.26103 23.5909 1.2913 23.6204 1.32812 23.6204H6.50795C6.51299 23.5899 6.51955 23.5599 6.5256 23.5298C6.52963 23.5087 6.53316 23.4875 6.5377 23.4664C6.54779 23.4191 6.55889 23.3724 6.571 23.3261C6.57402 23.3153 6.57604 23.304 6.57907 23.2931C6.5942 23.2361 6.61084 23.18 6.6285 23.1239C6.63404 23.1066 6.6401 23.0894 6.64565 23.0727C6.65876 23.0338 6.67188 22.9949 6.686 22.957C6.69407 22.9354 6.70265 22.9147 6.71072 22.8936C6.72383 22.8601 6.73745 22.8266 6.75107 22.7937C6.76066 22.771 6.77074 22.7489 6.78083 22.7268C6.79496 22.6957 6.80908 22.6647 6.82421 22.6337C6.8348 22.6111 6.84641 22.589 6.8575 22.5668C6.87263 22.5368 6.88827 22.5073 6.90442 22.4773C6.91652 22.4556 6.92862 22.434 6.94073 22.4123C6.95788 22.3828 6.97503 22.3537 6.99269 22.3247C7.00529 22.3036 7.01791 22.2829 7.03102 22.2622C7.04969 22.2327 7.06886 22.2037 7.08853 22.1751C7.10114 22.1554 7.11425 22.1357 7.12737 22.117C7.14906 22.086 7.17175 22.056 7.19395 22.026C7.20605 22.0093 7.21816 21.9925 7.23077 21.9763C7.26103 21.9374 7.29181 21.8991 7.32358 21.8612C7.32913 21.8543 7.33418 21.8474 7.33972 21.841C7.37756 21.7967 7.41589 21.7534 7.45523 21.7111C7.46784 21.6978 7.48045 21.685 7.49306 21.6717C7.52081 21.6427 7.54855 21.6141 7.5768 21.5861C7.59294 21.5703 7.60958 21.5551 7.62623 21.5393C7.65195 21.5147 7.67768 21.4906 7.70441 21.4665C7.72207 21.4508 7.74073 21.435 7.75889 21.4188C7.78461 21.3966 7.81084 21.3745 7.83758 21.3528C7.85675 21.3371 7.87592 21.3213 7.89559 21.3061C7.92182 21.2854 7.94905 21.2647 7.97629 21.2441C7.99596 21.2293 8.01614 21.2146 8.03632 21.2003C8.06406 21.1801 8.09231 21.1609 8.12055 21.1417C8.14124 21.1279 8.16141 21.1142 8.18159 21.1009C8.21135 21.0812 8.24161 21.0625 8.27188 21.0443C8.29206 21.032 8.31173 21.0197 8.3319 21.0079C8.36519 20.9882 8.39899 20.9695 8.43329 20.9508C8.45095 20.941 8.4681 20.9311 8.48625 20.9218C8.53417 20.8962 8.5826 20.8721 8.63203 20.8489C8.63607 20.847 8.6401 20.8445 8.64464 20.8425C8.69811 20.8174 8.75258 20.7933 8.80706 20.7707C8.82471 20.7633 8.84287 20.7569 8.86053 20.7495C8.89836 20.7348 8.93569 20.72 8.97402 20.7057C8.99571 20.6979 9.0179 20.691 9.0401 20.6831C9.0744 20.6713 9.10921 20.6595 9.14451 20.6486C9.16822 20.6413 9.19243 20.6344 9.21614 20.6275C9.25044 20.6176 9.28474 20.6078 9.31904 20.5989C9.34376 20.5925 9.36847 20.5862 9.39369 20.5802C9.42799 20.5719 9.4623 20.5645 9.4971 20.5571C9.52232 20.5517 9.54754 20.5463 9.57327 20.5414C9.60857 20.535 9.64388 20.5286 9.6797 20.5232C9.70492 20.5187 9.72964 20.5148 9.75536 20.5114C9.79218 20.5059 9.82951 20.5015 9.86734 20.4971C9.89105 20.4946 9.91526 20.4912 9.93947 20.4892C9.98083 20.4853 10.0227 20.4823 10.0646 20.4799C10.0852 20.4784 10.1054 20.4764 10.1261 20.4759C10.1892 20.4725 10.2517 20.471 10.3153 20.471C10.3788 20.471 10.4414 20.4725 10.5044 20.4759C10.5251 20.4764 10.5453 20.4784 10.566 20.4799C10.6078 20.4823 10.6497 20.4853 10.691 20.4892C10.7153 20.4912 10.7395 20.4946 10.7632 20.4971C10.801 20.5015 10.8383 20.5059 10.8752 20.5114C10.9009 20.5148 10.9256 20.5187 10.9508 20.5232C10.9866 20.5286 11.0219 20.535 11.0573 20.5414C11.083 20.5463 11.1082 20.5517 11.1334 20.5571C11.1682 20.5645 11.2025 20.5719 11.2368 20.5802C11.262 20.5862 11.2868 20.5925 11.3115 20.5989C11.3458 20.6078 11.3801 20.6176 11.4144 20.6275C11.4381 20.6344 11.4623 20.6413 11.486 20.6486C11.5213 20.6595 11.5561 20.6713 11.5904 20.6831C11.6126 20.691 11.6348 20.6979 11.6565 20.7057C11.6948 20.72 11.7322 20.7348 11.77 20.7495C11.7876 20.7569 11.8058 20.7633 11.8235 20.7707C11.8779 20.7933 11.9324 20.8174 11.9859 20.8425C11.9904 20.8445 11.9945 20.8465 11.9985 20.8489C12.0479 20.8721 12.0963 20.8962 12.1443 20.9218C12.1624 20.9311 12.1796 20.941 12.1972 20.9508C12.231 20.9695 12.2653 20.9882 12.2986 21.0079C12.3188 21.0197 12.3385 21.032 12.3586 21.0443C12.3889 21.0625 12.4192 21.0812 12.4489 21.1009C12.4691 21.1142 12.4893 21.1279 12.51 21.1417C12.5382 21.1609 12.5665 21.1801 12.5942 21.2003C12.6144 21.2146 12.6346 21.2293 12.6542 21.2441C12.6815 21.2647 12.7087 21.2854 12.7349 21.3061C12.7546 21.3213 12.7738 21.3371 12.7929 21.3528C12.8197 21.3745 12.8459 21.3966 12.8716 21.4193C12.8898 21.435 12.9084 21.4508 12.9261 21.4665C12.9528 21.4906 12.9786 21.5152 13.0048 21.5398C13.0209 21.5551 13.0376 21.5703 13.0537 21.5861C13.082 21.6141 13.1102 21.6432 13.138 21.6722C13.1501 21.685 13.1632 21.6978 13.1753 21.7111C13.2146 21.7534 13.253 21.7967 13.2908 21.841C13.2958 21.8474 13.3009 21.8538 13.3059 21.8597C13.3377 21.8981 13.3695 21.9369 13.3997 21.9768C13.4124 21.9925 13.424 22.0088 13.4361 22.025C13.4588 22.0555 13.4815 22.086 13.5032 22.117C13.5163 22.1357 13.5289 22.1554 13.542 22.1746C13.5617 22.2037 13.5808 22.2327 13.5995 22.2622C13.6126 22.2829 13.6252 22.3035 13.6378 22.3242C13.6555 22.3533 13.6731 22.3828 13.6898 22.4123C13.7019 22.434 13.714 22.4556 13.7256 22.4773C13.7422 22.5068 13.7579 22.5373 13.7735 22.5673C13.7846 22.5895 13.7952 22.6111 13.8063 22.6333C13.8214 22.6647 13.8356 22.6962 13.8497 22.7277C13.8598 22.7494 13.8699 22.771 13.8789 22.7932C13.8936 22.8266 13.9067 22.8606 13.9203 22.8946C13.9284 22.9152 13.9364 22.9359 13.9445 22.9566C13.9591 22.9959 13.9723 23.0353 13.9854 23.0751C13.9909 23.0914 13.997 23.1071 14.002 23.1234C14.0197 23.1795 14.0363 23.2366 14.052 23.2936C14.054 23.3025 14.056 23.3118 14.058 23.3207C14.0706 23.3694 14.0822 23.4181 14.0928 23.4673C14.0974 23.487 14.1009 23.5072 14.1044 23.5274C14.1105 23.5584 14.117 23.5889 14.1226 23.6204H25.0189V5.33919C25.0189 4.99965 25.3014 4.72408 25.6494 4.72408H34.7657C34.7813 4.72408 34.8293 4.72408 34.859 4.66946C34.8888 4.61533 34.8625 4.57645 34.8535 4.56415L32.8807 1.67656C32.6895 1.39705 32.3702 1.23023 32.0257 1.23023H15.5612C15.4694 1.23023 15.3831 1.26517 15.318 1.32865L14.2749 2.34629C13.9718 2.64204 13.5687 2.80492 13.14 2.80492H2.28197C1.71904 2.80492 1.26103 3.25174 1.26103 3.80091V19.5852Z" fill="current"></path>
    <path d="M17.6013 6.2981H21.5897C22.3953 6.2981 23.051 6.93732 23.051 7.72368V20.8886C23.051 21.2281 22.7686 21.5037 22.4205 21.5037H16.7711C16.423 21.5037 16.1406 21.2281 16.1406 20.8886V7.72368C16.1401 6.93732 16.7953 6.2981 17.6013 6.2981ZM17.4011 20.2735H21.7895V13.0397H17.4011V20.2735ZM17.4011 11.8095H21.7895V7.72368C21.7895 7.61592 21.6997 7.52832 21.5892 7.52832H17.6008C17.4904 7.52832 17.4006 7.61592 17.4006 7.72368V11.8095H17.4011ZM4.84371 6.2981H12.5562C13.4475 6.2981 14.1728 7.00572 14.1728 7.87525V11.4631C14.1728 12.3326 13.4475 13.0402 12.5562 13.0402H4.8432C3.9519 13.0402 3.22656 12.3326 3.22656 11.4631V7.87525C3.22706 7.00572 3.95241 6.2981 4.84371 6.2981ZM4.4881 11.4626C4.4881 11.6535 4.64749 11.8095 4.84371 11.8095H12.5562C12.7524 11.8095 12.9118 11.654 12.9118 11.4626V7.87476C12.9118 7.68382 12.7524 7.52783 12.5562 7.52783H4.8432C4.64699 7.52783 4.48759 7.68333 4.48759 7.87476V11.4626H4.4881Z" fill="current"></path>
  </symbol>
  <symbol fill="none" viewBox="0 0 20 20" id="CD">
    <path d="M10 17.5C14.1421 17.5 17.5 14.1421 17.5 10C17.5 5.85786 14.1421 2.5 10 2.5C5.85786 2.5 2.5 5.85786 2.5 10C2.5 14.1421 5.85786 17.5 10 17.5Z" stroke="#101828" stroke-width="1.5"></path>
    <path d="M5.41663 10C5.41663 7.46877 7.46871 5.41669 9.99996 5.41669" stroke="#101828" stroke-width="1.5" stroke-linecap="round"></path>
    <path d="M9.99996 12.0834C11.1506 12.0834 12.0833 11.1506 12.0833 10C12.0833 8.84943 11.1506 7.91669 9.99996 7.91669C8.84937 7.91669 7.91663 8.84943 7.91663 10C7.91663 11.1506 8.84937 12.0834 9.99996 12.0834Z" stroke="#101828" stroke-width="1.5"></path>
  </symbol>
  <symbol fill="none" viewBox="0 0 20 20" id="Conditioner">
    <g clip-path="url(#clip0_45_532)">
      <path d="M17.8571 0.714294H2.1428C1.76392 0.714294 1.40056 0.864804 1.13265 1.13271C0.864743 1.40062 0.714233 1.76399 0.714233 2.14287V9.28572C0.714233 9.6646 0.864743 10.028 1.13265 10.2959C1.40056 10.5638 1.76392 10.7143 2.1428 10.7143H17.8571C18.236 10.7143 18.5993 10.5638 18.8672 10.2959C19.1352 10.028 19.2857 9.6646 19.2857 9.28572V2.14287C19.2857 1.76399 19.1352 1.40062 18.8672 1.13271C18.5993 0.864804 18.236 0.714294 17.8571 0.714294Z" stroke="#101828" stroke-width="1.5" stroke-linecap="round" stroke-linejoin="round"></path>
      <path d="M15.7143 10.7143V7.85716C15.7143 7.47828 15.5638 7.11492 15.2958 6.84701C15.0279 6.5791 14.6646 6.42859 14.2857 6.42859H5.71427C5.33539 6.42859 4.97202 6.5791 4.70412 6.84701C4.43621 7.11492 4.2857 7.47828 4.2857 7.85716V10.7143M3.57141 17.8572H3.71427C4.2447 17.8572 4.75341 17.6464 5.12848 17.2714C5.50355 16.8963 5.71427 16.3876 5.71427 15.8572V14.2857M16.4286 17.8572H16.2857C15.7553 17.8572 15.2466 17.6464 14.8715 17.2714C14.4964 16.8963 14.2857 16.3876 14.2857 15.8572V14.2857M9.99998 19.2857V14.2857" stroke="#101828" stroke-width="1.5" stroke-linecap="round" stroke-linejoin="round"></path>
    </g>
    <defs>
      <clipPath id="clip0_45_532">
        <rect width="20" height="20" fill="white"></rect>
      </clipPath>
    </defs>
  </symbol>
  <symbol fill="none" viewBox="0 0 20 20" id="Automatic">
    <path d="M14.1667 9.16667H15.4167C15.7482 9.16667 16.0661 9.03497 16.3006 8.80055C16.535 8.56613 16.6667 8.24819 16.6667 7.91667C16.6667 7.58515 16.535 7.2672 16.3006 7.03278C16.0661 6.79836 15.7482 6.66667 15.4167 6.66667H14.1667V10.8333M14.1667 14.1667V17.5H15C15.442 17.5 15.866 17.3244 16.1785 17.0118C16.4911 16.6993 16.6667 16.2754 16.6667 15.8333C16.6667 15.3913 16.4911 14.9674 16.1785 14.6548C15.866 14.3423 15.442 14.1667 15 14.1667H14.1667ZM2.5 4.16667C2.5 4.60869 2.67559 5.03262 2.98816 5.34518C3.30072 5.65774 3.72464 5.83333 4.16667 5.83333C4.60869 5.83333 5.03262 5.65774 5.34518 5.34518C5.65774 5.03262 5.83333 4.60869 5.83333 4.16667C5.83333 3.72464 5.65774 3.30072 5.34518 2.98816C5.03262 2.67559 4.60869 2.5 4.16667 2.5C3.72464 2.5 3.30072 2.67559 2.98816 2.98816C2.67559 3.30072 2.5 3.72464 2.5 4.16667Z" stroke="#101828" stroke-width="1.5" stroke-linecap="round" stroke-linejoin="round"></path>
    <path d="M4.16663 5.83331V8.33331C4.16663 8.55433 4.25442 8.76629 4.4107 8.92257C4.56698 9.07885 4.77895 9.16665 4.99996 9.16665H7.49996M7.49996 9.16665V15C7.49996 15.221 7.58776 15.433 7.74404 15.5892C7.90032 15.7455 8.11228 15.8333 8.33329 15.8333H10.8333M7.49996 9.16665H10.8333" stroke="#101828" stroke-width="1.5" stroke-linecap="round" stroke-linejoin="round"></path>
  </symbol>
  <symbol fill="none" viewBox="0 0 20 20" id="freezer">
    <path d="M14.625 1.875H5.37915C4.68879 1.875 4.12915 2.43464 4.12915 3.125V15.8667C4.12915 16.557 4.68879 17.1167 5.37915 17.1167H14.625C15.3153 17.1167 15.875 16.557 15.875 15.8667V3.125C15.875 2.43464 15.3153 1.875 14.625 1.875Z" stroke="#101828" stroke-width="1.3" stroke-linecap="round" stroke-linejoin="round"></path>
    <path d="M4.12915 8.20416H15.8708M6.44582 6.60416V4.07916M6.44582 12.15V9.625M5.26665 17.1167V17.5542C5.26665 17.7048 5.32622 17.8494 5.43237 17.9563C5.53852 18.0633 5.68265 18.1239 5.83332 18.125H6.86248C7.01388 18.125 7.15907 18.0649 7.26612 17.9578C7.37318 17.8507 7.43332 17.7056 7.43332 17.5542V17.1167M12.5625 17.1167V17.5542C12.5625 17.7056 12.6226 17.8507 12.7297 17.9578C12.8367 18.0649 12.9819 18.125 13.1333 18.125H14.1667C14.318 18.125 14.4632 18.0649 14.5703 17.9578C14.6773 17.8507 14.7375 17.7056 14.7375 17.5542V17.1167" stroke="#101828" stroke-width="1.3" stroke-linecap="round" stroke-linejoin="round"></path>
  </symbol>
  <symbol fill="none" viewBox="0 0 24 24" id="hart">
    <path d="M20.8401 4.60999C20.3294 4.099 19.7229 3.69364 19.0555 3.41708C18.388 3.14052 17.6726 2.99817 16.9501 2.99817C16.2276 2.99817 15.5122 3.14052 14.8448 3.41708C14.1773 3.69364 13.5709 4.099 13.0601 4.60999L12.0001 5.66999L10.9401 4.60999C9.90842 3.5783 8.50915 2.9987 7.05012 2.9987C5.59108 2.9987 4.19181 3.5783 3.16012 4.60999C2.12843 5.64169 1.54883 7.04096 1.54883 8.49999C1.54883 9.95903 2.12843 11.3583 3.16012 12.39L4.22012 13.45L12.0001 21.23L19.7801 13.45L20.8401 12.39C21.3511 11.8792 21.7565 11.2728 22.033 10.6053C22.3096 9.93789 22.4519 9.22248 22.4519 8.49999C22.4519 7.77751 22.3096 7.0621 22.033 6.39464C21.7565 5.72718 21.3511 5.12075 20.8401 4.60999Z" stroke="#101828" stroke-width="2.3" stroke-linecap="round" stroke-linejoin="round"></path>
  </symbol>
  <symbol fill="none" viewBox="0 0 20 20" id="hob">
    <path d="M7.49996 4.16669H17.5C17.721 4.16669 17.9329 4.25448 18.0892 4.41076C18.2455 4.56705 18.3333 4.77901 18.3333 5.00002V15.8334C18.3333 16.0544 18.2455 16.2663 18.0892 16.4226C17.9329 16.5789 17.721 16.6667 17.5 16.6667H7.49996M7.49996 4.16669H2.49996C2.27895 4.16669 2.06698 4.25448 1.9107 4.41076C1.75442 4.56705 1.66663 4.77901 1.66663 5.00002V15.8334C1.66663 16.0544 1.75442 16.2663 1.9107 16.4226C2.06698 16.5789 2.27895 16.6667 2.49996 16.6667H7.49996M7.49996 4.16669V16.6667" stroke="#101828" stroke-width="1.5"></path>
    <path d="M4.58325 7.08335V8.75002M15.4166 6.66669L10.4166 13.75" stroke="#101828" stroke-width="1.5" stroke-linecap="round" stroke-linejoin="round"></path>
    <path d="M5.41667 11.25C5.41667 10.7898 5.04357 10.4167 4.58333 10.4167C4.1231 10.4167 3.75 10.7898 3.75 11.25C3.75 11.7103 4.1231 12.0834 4.58333 12.0834C5.04357 12.0834 5.41667 11.7103 5.41667 11.25Z" fill="#101828"></path>
    <path d="M5.41667 13.75C5.41667 13.2898 5.04357 12.9167 4.58333 12.9167C4.1231 12.9167 3.75 13.2898 3.75 13.75C3.75 14.2103 4.1231 14.5834 4.58333 14.5834C5.04357 14.5834 5.41667 14.2103 5.41667 13.75Z" fill="#101828"></path>
  </symbol>
  <symbol fill="none" viewBox="0 0 20 20" id="kitchen">
    <path d="M15.8333 12.5V2.5C11.82 6.32833 11.6475 9.4325 11.6666 12.5H15.8333ZM15.8333 12.5V17.5H15V15M6.66663 3.33333V17.5M4.16663 3.33333V5.83333C4.16663 6.49637 4.43002 7.13226 4.89886 7.6011C5.3677 8.06994 6.00358 8.33333 6.66663 8.33333C7.32967 8.33333 7.96555 8.06994 8.43439 7.6011C8.90323 7.13226 9.16663 6.49637 9.16663 5.83333V3.33333" stroke="#101828" stroke-width="1.5" stroke-linecap="round" stroke-linejoin="round"></path>
  </symbol>
  <symbol fill="current" viewBox="0 0 20 20" id="mdi_gas">
    <path d="M15.6699 8.74467C15.44 8.46132 15.16 8.21576 14.9001 7.9702C14.2302 7.40352 13.4703 6.99739 12.8305 6.40238C11.3407 5.02345 11.0108 2.74727 11.9606 1C11.0108 1.21723 10.1809 1.70835 9.47107 2.2467C6.88155 4.2112 5.86173 7.67741 7.08151 10.6525C7.1215 10.7469 7.16149 10.8414 7.16149 10.9642C7.16149 11.172 7.01152 11.3609 6.81156 11.4364C6.5816 11.5309 6.34165 11.4742 6.15168 11.3231C6.09459 11.2785 6.04708 11.224 6.01171 11.1625C4.88191 9.81192 4.70194 7.87575 5.46181 6.32682C3.79211 7.6113 2.88228 9.78358 3.01225 11.8331C3.07224 12.3053 3.13223 12.7776 3.3022 13.2498C3.44218 13.8165 3.71213 14.3832 4.01207 14.8837C5.09187 16.5177 6.96153 17.6888 8.97116 17.9249C11.1108 18.1799 13.4004 17.8116 15.0401 16.4138C16.8697 14.846 17.5096 12.3337 16.5698 10.1803L16.4398 9.9347C16.2298 9.50024 15.6699 8.74467 15.6699 8.74467ZM12.5105 14.6948C12.2306 14.9215 11.7707 15.1671 11.4107 15.2615C10.2909 15.6393 9.17113 15.1104 8.51125 14.4871C9.70103 14.2226 10.4109 13.3915 10.6209 12.5509C10.7908 11.7953 10.4709 11.172 10.3409 10.4447C10.2209 9.7458 10.2409 9.15079 10.5109 8.4991C10.7008 8.858 10.9008 9.2169 11.1408 9.50024C11.9106 10.4447 13.1204 10.8603 13.3804 12.1448C13.4203 12.277 13.4403 12.4092 13.4403 12.5509C13.4703 13.3254 13.1104 14.1754 12.5105 14.6948Z" fill="current"></path>
  </symbol>
  <symbol fill="none" viewBox="0 0 20 20" id="microwave">
    <path d="M18.5714 3.57141H1.42852C1.23908 3.57141 1.0574 3.64667 0.923443 3.78062C0.789488 3.91458 0.714233 4.09626 0.714233 4.2857V15.7143C0.714233 15.9037 0.789488 16.0854 0.923443 16.2193C1.0574 16.3533 1.23908 16.4286 1.42852 16.4286H18.5714C18.7608 16.4286 18.9425 16.3533 19.0765 16.2193C19.2104 16.0854 19.2857 15.9037 19.2857 15.7143V4.2857C19.2857 4.09626 19.2104 3.91458 19.0765 3.78062C18.9425 3.64667 18.7608 3.57141 18.5714 3.57141Z" stroke="#101828" stroke-width="1.4" stroke-linecap="round" stroke-linejoin="round"></path>
    <path d="M15.7143 7.14281H16.4286M15.7143 9.99996H16.4286M12.1428 6.42853H4.2857C4.09626 6.42853 3.91458 6.50378 3.78062 6.63774C3.64667 6.77169 3.57141 6.95337 3.57141 7.14281V12.8571C3.57141 13.0465 3.64667 13.2282 3.78062 13.3622C3.91458 13.4961 4.09626 13.5714 4.2857 13.5714H12.1428C12.3323 13.5714 12.514 13.4961 12.6479 13.3622C12.7819 13.2282 12.8571 13.0465 12.8571 12.8571V7.14281C12.8571 6.95337 12.7819 6.77169 12.6479 6.63774C12.514 6.50378 12.3323 6.42853 12.1428 6.42853Z" stroke="#101828" stroke-width="1.4" stroke-linecap="round" stroke-linejoin="round"></path>
  </symbol>
  <symbol fill="current" stroke-width="0.5" viewBox="0 0 20 20" id="Petrol">
    <path d="M16.475 6.025L16.4834 6.01667L13.3834 2.91667L12.5 3.8L14.2584 5.55833C13.475 5.85833 12.9167 6.60833 12.9167 7.5C12.9167 7.77359 12.9706 8.0445 13.0753 8.29726C13.18 8.55002 13.3334 8.77968 13.5269 8.97314C13.9176 9.36384 14.4475 9.58333 15 9.58333C15.3 9.58333 15.575 9.51667 15.8334 9.40833V15.4167C15.8334 15.6377 15.7456 15.8496 15.5893 16.0059C15.433 16.1622 15.2211 16.25 15 16.25C14.779 16.25 14.5671 16.1622 14.4108 16.0059C14.2545 15.8496 14.1667 15.6377 14.1667 15.4167V11.6667C14.1667 11.2246 13.9911 10.8007 13.6786 10.4882C13.366 10.1756 12.9421 10 12.5 10H11.6667V4.16667C11.6667 3.72464 11.4911 3.30072 11.1786 2.98816C10.866 2.67559 10.4421 2.5 10 2.5H5.00004C4.55801 2.5 4.13409 2.67559 3.82153 2.98816C3.50897 3.30072 3.33337 3.72464 3.33337 4.16667V17.5H11.6667V11.25H12.9167V15.4167C12.9167 15.9692 13.1362 16.4991 13.5269 16.8898C13.9176 17.2805 14.4475 17.5 15 17.5C15.2736 17.5 15.5445 17.4461 15.7973 17.3414C16.0501 17.2367 16.2797 17.0833 16.4732 16.8898C16.6666 16.6964 16.8201 16.4667 16.9248 16.2139C17.0295 15.9612 17.0834 15.6903 17.0834 15.4167V7.5C17.0834 6.925 16.85 6.4 16.475 6.025ZM10 11.25V15.8333H5.00004V10H10V11.25ZM10 8.33333H5.00004V4.16667H10V8.33333ZM15 8.33333C14.779 8.33333 14.5671 8.24554 14.4108 8.08926C14.2545 7.93297 14.1667 7.72101 14.1667 7.5C14.1667 7.27899 14.2545 7.06702 14.4108 6.91074C14.5671 6.75446 14.779 6.66667 15 6.66667C15.2211 6.66667 15.433 6.75446 15.5893 6.91074C15.7456 7.06702 15.8334 7.27899 15.8334 7.5C15.8334 7.72101 15.7456 7.93297 15.5893 8.08926C15.433 8.24554 15.2211 8.33333 15 8.33333Z" fill="current"></path>
  </symbol>
  <symbol fill="none" viewBox="0 0 18 18" id="Radio">
    <path d="M0.666626 10.6667C0.666626 7.52417 0.666626 5.9525 1.64329 4.97667C2.61913 4 4.19079 4 7.33329 4H10.6666C13.8091 4 15.3808 4 16.3566 4.97667C17.3333 5.9525 17.3333 7.52417 17.3333 10.6667C17.3333 13.8092 17.3333 15.3808 16.3566 16.3567C15.3808 17.3333 13.8091 17.3333 10.6666 17.3333H7.33329C4.19079 17.3333 2.61913 17.3333 1.64329 16.3567C0.666626 15.3808 0.666626 13.8092 0.666626 10.6667Z" stroke="#101828" stroke-width="1.3"></path>
    <path d="M3.16663 8.16667C3.16663 7.72464 3.34222 7.30072 3.65478 6.98816C3.96734 6.6756 4.39127 6.5 4.83329 6.5H13.1666C13.6087 6.5 14.0326 6.6756 14.3451 6.98816C14.6577 7.30072 14.8333 7.72464 14.8333 8.16667C14.8333 8.60869 14.6577 9.03262 14.3451 9.34518C14.0326 9.65774 13.6087 9.83333 13.1666 9.83333H4.83329C4.39127 9.83333 3.96734 9.65774 3.65478 9.34518C3.34222 9.03262 3.16663 8.60869 3.16663 8.16667ZM6.49996 13.1667C6.49996 13.4982 6.36826 13.8161 6.13384 14.0505C5.89942 14.285 5.58148 14.4167 5.24996 14.4167C4.91844 14.4167 4.6005 14.285 4.36608 14.0505C4.13166 13.8161 3.99996 13.4982 3.99996 13.1667C3.99996 12.8351 4.13166 12.5172 4.36608 12.2828C4.6005 12.0484 4.91844 11.9167 5.24996 11.9167C5.58148 11.9167 5.89942 12.0484 6.13384 12.2828C6.36826 12.5172 6.49996 12.8351 6.49996 13.1667Z" stroke="#101828" stroke-width="1.3"></path>
    <path d="M11.5 8.58335V9.83335M9.83329 13.1667H14M4.41663 4.00002L11.5 0.666687" stroke="#101828" stroke-width="1.3" stroke-linecap="round"></path>
  </symbol>
  <symbol fill="none" viewBox="0 0 20 20" id="Shower">
    <path d="M3.33337 3.33331L5.41671 5.41665M11.25 5.41665C10.4738 4.65596 9.42879 4.23234 8.342 4.23783C7.25522 4.24332 6.21451 4.67748 5.44602 5.44596C4.67754 6.21444 4.24338 7.25516 4.23789 8.34194C4.2324 9.42873 4.65603 10.4738 5.41671 11.25M12.5 4.16665L4.16671 12.5M11.6667 14.1666V14.175M8.33337 13.3333V13.3416M10.8334 10.8333V10.8416M13.3334 8.33331V8.34165M9.16671 16.6666V16.675M14.1667 11.6666V11.675M16.6667 9.16665V9.17498" stroke="#101828" stroke-width="1.6" stroke-linecap="round" stroke-linejoin="round"></path>
  </symbol>
  <symbol fill="none" viewBox="0 0 14 14" id="strokez">
    <path fill-rule="evenodd" clip-rule="evenodd" d="M5.33338 1.16666C5.33338 0.706424 5.70647 0.333328 6.16671 0.333328H11.4167C13.9981 0.333328 14.9289 3.71051 12.6587 4.97624L2.9881 10.4785C2.2633 10.8812 2.49965 12 3.41671 12H7.83338C8.29361 12 8.66671 12.3731 8.66671 12.8333C8.66671 13.2936 8.29361 13.6667 7.83338 13.6667H3.41671C0.835293 13.6667 -0.0954357 10.2895 2.17466 9.02376L11.8453 3.52149C12.5701 3.11883 12.3338 1.99999 11.4167 1.99999H6.16671C5.70647 1.99999 5.33338 1.6269 5.33338 1.16666Z" fill="#101828"></path>
  </symbol>
  <symbol fill="current" viewBox="0 0 20 20" id="Toilet">
    <path d="M15 2.5C16.2116 2.5 17.0433 3.52917 17.525 4.57083C18.0008 5.60417 18.29 6.9525 18.3291 8.41167L18.3333 8.75V16.6667C18.3334 16.779 18.3108 16.8901 18.2668 16.9935C18.2229 17.0968 18.1585 17.1902 18.0776 17.268C17.9966 17.3459 17.9008 17.4065 17.7958 17.4464C17.6908 17.4863 17.5788 17.5045 17.4666 17.5L17.3633 17.4883L15 17.095L12.6366 17.4883C12.5366 17.505 12.4344 17.5033 12.335 17.4833L12.2366 17.4575L9.99996 16.7117L7.76329 17.4575C7.64597 17.4966 7.52143 17.5091 7.39869 17.4941C7.27594 17.479 7.15808 17.4369 7.05365 17.3707C6.94922 17.3045 6.86083 17.2158 6.7949 17.1112C6.72897 17.0066 6.68714 16.8886 6.67246 16.7658L6.66663 16.6667V14.2275C6.22413 14.6858 5.66996 15 4.99996 15C3.78829 15 2.95663 13.9708 2.47496 12.9292C1.96329 11.8167 1.66663 10.3383 1.66663 8.75C1.66663 7.16167 1.96246 5.68333 2.47496 4.57083C2.93413 3.57583 3.71329 2.59333 4.83746 2.50667L4.99996 2.5H15ZM15 4.16667H7.31829C7.39329 4.3 7.46163 4.435 7.52413 4.57083C8.03746 5.68333 8.33329 7.16167 8.33329 8.75V15.5108L9.73663 15.0425C9.90757 14.9856 10.0924 14.9856 10.2633 15.0425L12.5675 15.8108L14.8633 15.4275C14.9533 15.4125 15.0466 15.4125 15.1366 15.4275L16.6666 15.6833V8.75C16.6666 7.34667 16.4025 6.11667 16.0108 5.26917C15.5875 4.35 15.1691 4.16667 15 4.16667ZM4.99996 4.16667C4.83079 4.16667 4.41246 4.35 3.98913 5.26917C3.59746 6.11667 3.33329 7.34667 3.33329 8.75C3.33329 10.1533 3.59746 11.3833 3.98913 12.2308C4.41246 13.15 4.83079 13.3333 4.99996 13.3333C5.16913 13.3333 5.58746 13.15 6.01079 12.2308C6.40246 11.3833 6.66663 10.1533 6.66663 8.75C6.66663 7.34667 6.40246 6.11667 6.01079 5.26917C5.58746 4.35 5.16913 4.16667 4.99996 4.16667ZM4.99996 7.08333C5.45996 7.08333 5.83329 7.82917 5.83329 8.75C5.83329 9.67083 5.45996 10.4167 4.99996 10.4167C4.53996 10.4167 4.16663 9.67083 4.16663 8.75C4.16663 7.82917 4.53996 7.08333 4.99996 7.08333Z" fill="current"></path>
  </symbol>
  <symbol fill="none" viewBox="0 0 26 30" id="TV">
    <path d="M21 25H5C2.784 25 1 23.216 1 21V11C1 8.784 2.784 7 5 7H21C23.216 7 25 8.784 25 11V21C25 23.216 23.216 25 21 25Z" stroke="#101828" stroke-width="1.8" stroke-linecap="round" stroke-linejoin="round"></path>
    <path d="M9 29H17" stroke="#101828" stroke-width="1.8" stroke-linecap="round" stroke-linejoin="round"></path>
    <path d="M13 7L19 1" stroke="#101828" stroke-width="1.8" stroke-linecap="round" stroke-linejoin="round"></path>
    <path d="M13 7L7 1" stroke="#101828" stroke-width="1.8" stroke-linecap="round" stroke-linejoin="round"></path>
  </symbol>
  <symbol fill="none" viewBox="0 0 20 20" id="water">
    <path d="M15.625 12.5C15.625 15.952 13.452 18.125 10 18.125C6.54805 18.125 4.375 15.952 4.375 12.5C4.375 8.79571 8.40742 3.79492 9.64414 2.34844C9.68815 2.29705 9.74276 2.25579 9.80422 2.2275C9.86568 2.19922 9.93254 2.18457 10.0002 2.18457C10.0679 2.18457 10.1347 2.19922 10.1962 2.2275C10.2576 2.25579 10.3122 2.29705 10.3562 2.34844C11.5926 3.79492 15.625 8.79571 15.625 12.5Z" stroke="#101828" stroke-width="1.5" stroke-miterlimit="10"></path>
    <path d="M13.4375 12.8125C13.4375 13.5584 13.1412 14.2738 12.6137 14.8012C12.0863 15.3287 11.3709 15.625 10.625 15.625" stroke="#101828" stroke-width="1.5" stroke-linecap="round" stroke-linejoin="round"></path>
  </symbol>
  <symbol fill="current" stroke-width="0.5" viewBox="0 0 20 20" id="adults">
    <path d="M5.66666 15.0833H2.91666C2.74999 15.0833 2.66666 15 2.58333 14.9166C2.49999 14.8333 2.41666 14.6666 2.49999 14.5C2.99999 13.0833 4.24999 12.25 5.66666 12.25C7.41666 12.25 8.83333 10.75 8.83333 8.99998C8.83333 7.24998 7.41666 5.58331 5.66666 5.58331C3.91666 5.58331 2.49999 7.08331 2.49999 8.91665C2.49999 9.74998 2.83333 10.5833 3.33333 11.1666C2.24999 11.75 1.41666 12.6666 0.91666 13.9166C0.749994 14.5 0.833327 15.25 1.24999 15.8333C1.66666 16.4166 2.24999 16.75 2.91666 16.75H5.66666C6.16666 16.75 6.49999 16.4166 6.49999 15.9166C6.49999 15.4166 6.16666 15.0833 5.66666 15.0833ZM4.16666 8.91665C4.16666 7.99998 4.83333 7.33331 5.66666 7.33331C6.49999 7.33331 7.16666 8.08331 7.16666 8.91665C7.16666 9.83331 6.49999 10.5 5.66666 10.5C4.83333 10.5 4.16666 9.74998 4.16666 8.91665Z" fill="current"></path>
    <path d="M19.0833 13.4167C18.5 11.8333 17.3333 10.6667 16 10C16.75 9.33333 17.1666 8.33333 17.1666 7.16667C17.1666 5 15.5 3.25 13.5 3.25C11.5 3.25 9.83331 5 9.83331 7.16667C9.83331 8.25 10.25 9.25 11 10C9.66664 10.6667 8.49998 11.8333 7.91664 13.4167C7.49998 14.1667 7.66664 15 8.08331 15.6667C8.49998 16.3333 9.24998 16.6667 9.99998 16.6667H16.9166C17.6666 16.6667 18.4166 16.25 18.8333 15.6667C19.3333 15 19.4166 14.1667 19.0833 13.4167ZM11.4166 7.25C11.4166 6 12.3333 5 13.4166 5C14.5 5 15.4166 6 15.4166 7.25C15.4166 8.5 14.5 9.5 13.4166 9.5C12.3333 9.5 11.4166 8.41667 11.4166 7.25ZM17.4166 14.75C17.3333 14.8333 17.1666 15.0833 16.9166 15.0833H9.99998C9.66664 15.0833 9.49998 14.8333 9.49998 14.75C9.41664 14.6667 9.24998 14.3333 9.41665 14C10.0833 12.25 11.75 11.0833 13.5 11.0833C15.25 11.0833 16.9166 12.25 17.5833 14C17.6666 14.3333 17.5 14.6667 17.4166 14.75Z" fill="current"></path>
  </symbol>
  <symbol id="AC" viewBox="0 0 46 32">
    <path d="M18.931 1.154c-1.741 0-3.428 0.595-4.775 1.681s-2.269 2.599-2.611 4.28l-0.135 0.667c-0.036 0.149-0.041 0.304-0.015 0.455s0.083 0.295 0.167 0.424c0.084 0.129 0.194 0.24 0.322 0.326s0.274 0.146 0.426 0.176c0.153 0.030 0.31 0.030 0.462-0.002s0.297-0.092 0.425-0.179c0.128-0.087 0.237-0.199 0.32-0.328s0.139-0.274 0.164-0.426l0.137-0.665c0.257-1.246 0.975-2.354 2.014-3.109s2.326-1.103 3.611-0.978c1.285 0.126 2.477 0.716 3.346 1.658s1.351 2.167 1.354 3.439c0 1.363-0.55 2.671-1.528 3.635s-2.306 1.506-3.691 1.507h-16.818c-0.308 0-0.603 0.12-0.82 0.334s-0.34 0.505-0.34 0.807c0 0.303 0.122 0.593 0.34 0.807s0.512 0.334 0.82 0.334h16.818c1.967-0.047 3.838-0.85 5.212-2.236s2.144-3.247 2.145-5.184-0.768-3.799-2.141-5.186c-1.374-1.387-3.244-2.191-5.211-2.24zM32.264 11.432c-1.538 0-3.013 0.601-4.101 1.672s-1.699 2.523-1.699 4.038c0 0.303 0.122 0.593 0.34 0.807s0.512 0.334 0.82 0.334 0.602-0.12 0.82-0.334c0.218-0.214 0.34-0.505 0.34-0.807 0-0.678 0.204-1.34 0.586-1.903s0.926-1.002 1.562-1.262c0.636-0.259 1.335-0.327 2.010-0.195s1.295 0.458 1.782 0.938c0.486 0.479 0.818 1.089 0.952 1.754s0.065 1.354-0.198 1.979-0.71 1.161-1.282 1.538c-0.572 0.377-1.245 0.577-1.933 0.577h-30.156c-0.308 0-0.603 0.12-0.82 0.335s-0.34 0.505-0.34 0.807c0 0.303 0.122 0.594 0.34 0.808s0.512 0.334 0.82 0.334h22.617c0.769 0.002 1.506 0.304 2.049 0.84s0.847 1.263 0.845 2.020c-0.002 0.757-0.309 1.483-0.854 2.017s-1.283 0.834-2.052 0.832c-0.692 0.001-1.363-0.24-1.893-0.68s-0.884-1.050-1-1.722l-0.011-0.069c-0.021-0.151-0.072-0.297-0.151-0.429s-0.184-0.246-0.309-0.337-0.267-0.156-0.418-0.191c-0.151-0.036-0.308-0.041-0.461-0.016s-0.3 0.080-0.431 0.162c-0.131 0.082-0.244 0.189-0.332 0.315s-0.15 0.267-0.182 0.417c-0.032 0.15-0.032 0.304-0.003 0.454l0.012 0.069c0.206 1.206 0.84 2.3 1.788 3.090s2.15 1.222 3.392 1.222c1.385 0.001 2.715-0.54 3.696-1.504s1.533-2.271 1.536-3.635c0-1.058-0.325-2.040-0.879-2.855h3.199c1.538 0 3.013-0.602 4.101-1.672s1.699-2.523 1.699-4.037-0.611-2.967-1.699-4.037c-1.087-1.071-2.563-1.672-4.101-1.672z"></path>
  </symbol>
  <symbol id="Logo" stroke="current" viewBox="0 0 32 32" stroke-width="0.5">
    <path d="M15.599 0c-0.051 0.060-1.142 1.746-2.428 3.74l-2.343 3.629-0.23 1.44c-0.128 0.792-0.264 1.593-0.298 1.781l-0.060 0.341-1.142 0.494c-2.155 0.912-1.951 0.767-2.556 1.866-0.29 0.528-0.554 0.997-0.596 1.031-0.034 0.043-0.383-0.409-0.767-0.997s-0.716-1.073-0.733-1.073c-0.017 0-0.332 0.451-0.707 0.997-0.375 0.554-0.775 1.099-0.894 1.21-0.298 0.281-0.281 0.349 0.094 0.349h0.315l-0.247 0.255c-0.136 0.145-0.417 0.341-0.63 0.443l-0.392 0.188 0.298 0.068c0.162 0.034 0.451 0.043 0.639 0.017l0.341-0.043-0.238 0.204c-0.128 0.111-0.434 0.273-0.673 0.358-0.358 0.128-0.409 0.171-0.273 0.221 0.085 0.034 0.349 0.068 0.588 0.068 0.417 0.008 0.417 0.008 0.256 0.179-0.094 0.094-0.401 0.256-0.682 0.375-0.511 0.204-0.511 0.204-0.273 0.298 0.136 0.051 0.315 0.094 0.401 0.094 0.401 0 0.179 0.443-0.307 0.596-0.264 0.085-0.281 0.111-0.162 0.204 0.128 0.094-0.017 0.315-1.193 1.874-0.733 0.971-1.321 1.789-1.295 1.806 0.017 0.017 1.815 0.034 3.987 0.043 2.172 0 4.175 0.017 4.447 0.051l0.486 0.051v0.656l-2.871 0.025-2.88 0.017 2.88 0.025c2.786 0.017 2.871 0.025 2.871 0.188 0 0.145-0.068 0.162-0.741 0.188l-0.75 0.025-0.008 0.238c-0.008 0.213-0.008 0.213 0.025 0.017l0.034-0.213h5.453c5.385 0 5.444 0 5.444 0.171s-0.060 0.171-4.763 0.171c-2.624 0-4.822 0.025-4.899 0.051-0.111 0.043-0.136 0.188-0.136 0.716 0 0.384 0.043 0.699 0.094 0.724 0.051 0.034 0.068 0.111 0.043 0.179s-0.008 0.119 0.034 0.119c0.111 0 0.111-0.315 0-0.384-0.043-0.025-0.085-0.188-0.085-0.349v-0.29h4.26c2.786 0 4.26-0.025 4.26-0.085s-1.482-0.085-4.268-0.085h-4.26l0.025-0.238c0.025-0.221 0.043-0.23 0.562-0.23 0.29 0.008 2.479 0.017 4.865 0.025l4.337 0.017 0.051 0.273c0.034 0.153 0.153 0.426 0.264 0.596l0.213 0.324h-0.937c-0.69 0-0.929 0.025-0.886 0.094s0.358 0.085 1.056 0.051c0.869-0.034 1.014-0.025 1.193 0.111l0.204 0.153-0.401 1.295c-0.23 0.716-0.392 1.312-0.375 1.329 0.017 0.025 0.145-0.298 0.264-0.707 0.128-0.409 0.315-1.005 0.409-1.312l0.179-0.562 1.21 0.051-0.554-0.068c-0.622-0.068-0.963-0.221-1.286-0.579-0.366-0.384-0.511-0.758-0.511-1.295-0.008-0.605 0.196-1.039 0.673-1.474 1.167-1.048 3.076-0.179 3.093 1.414 0.017 0.792-0.434 1.491-1.159 1.806-0.136 0.060-0.196 0.111-0.128 0.119 0.068 0 0.256-0.077 0.409-0.171s0.332-0.171 0.409-0.171c0.068 0 0.102-0.034 0.077-0.085-0.025-0.043 0.043-0.213 0.162-0.366 0.119-0.162 0.247-0.409 0.273-0.554 0.060-0.298 0.145-0.341 0.843-0.384 0.366-0.025 0.341-0.034-0.145-0.043-0.52-0.017-0.579-0.034-0.579-0.188 0-0.162 0.060-0.171 1.184-0.171 1.167 0 1.193 0 1.227 0.188 0.017 0.111 0.017 0.008-0.008-0.213l-0.034-0.417 1.244 0.034 1.244 0.025-0.008-0.298c-0.017-0.256-0.025-0.264-0.051-0.060l-0.034 0.23h-2.377v-0.673l0.46-0.051c0.256-0.034 0.809-0.043 1.235-0.034l0.775 0.034v-3.536h0.511v6.688l0.571-0.034c0.324-0.025 0.468-0.051 0.324-0.068-0.136-0.017-0.384-0.051-0.537-0.077l-0.281-0.043 0.051-2.079 4.686-0.085-2.368-0.025-2.368-0.017 0.025-0.366 0.025-0.358 5.265-0.085-0.588-0.511c-1.048-0.912-1.142-1.005-1.090-1.082 0.034-0.043 0.23-0.077 0.451-0.068 0.656 0.034 0.673 0 0.136-0.247-0.281-0.128-0.562-0.298-0.63-0.375-0.102-0.128-0.085-0.145 0.128-0.145 0.136 0 0.401-0.077 0.588-0.162l0.341-0.153-0.349-0.102c-0.375-0.102-1.056-0.554-1.056-0.69 0-0.051 0.171-0.085 0.375-0.085 0.213 0 0.486-0.043 0.613-0.094 0.238-0.085 0.238-0.085-0.366-0.426-0.775-0.417-0.852-0.537-0.332-0.46 0.681 0.102 1.090-0.102 0.562-0.29-0.145-0.043-0.384-0.171-0.537-0.281l-0.264-0.188 0.204-0.060c0.119-0.034 0.341-0.060 0.494-0.068 0.145-0.008 0.273-0.043 0.273-0.077s-0.221-0.179-0.486-0.315l-0.494-0.238 0.384-0.085c0.341-0.068 0.366-0.094 0.213-0.179-0.221-0.119-0.809-0.716-0.809-0.809 0-0.043 0.136-0.034 0.298 0.017 0.417 0.128 0.451 0.025 0.119-0.341-0.162-0.179-0.571-0.758-0.92-1.286-0.341-0.52-0.656-0.954-0.681-0.954-0.034 0-0.324 0.392-0.647 0.86l-0.596 0.869-3.323-3.442-0.98-1.712-0.98-1.704-1.286-0.554-1.295-0.545-0.494-0.699c-0.281-0.383-0.903-1.252-1.397-1.934s-0.954-1.321-1.022-1.423c-0.221-0.315-1.38-1.942-1.448-2.011-0.034-0.034-0.102-0.017-0.145 0.043zM17.738 2.939c1.107 1.542 2.096 2.897 2.207 3.016 0.119 0.136 0.656 0.417 1.431 0.75l1.244 0.528 0.877 1.551c0.477 0.852 0.92 1.636 0.988 1.729 0.060 0.102 0.843 0.937 1.738 1.849l1.636 1.67-0.23 0.307c-0.128 0.162-0.273 0.298-0.315 0.298s-0.051 0.034-0.025 0.085c0.025 0.043 0.196 0.085 0.366 0.085l0.315 0.008-0.298 0.255c-0.162 0.145-0.409 0.315-0.554 0.375-0.23 0.111-0.23 0.119-0.060 0.128 0.153 0 0.188 0.043 0.188 0.298 0 0.273-0.017 0.298-0.256 0.298s-0.256-0.025-0.273-0.324l-0.008-0.315-0.068 0.63-0.895 0.025c-0.784 0.025-0.937 0-1.167-0.145l-0.273-0.171 0.409-0.025c0.221-0.017 0.401-0.060 0.401-0.111 0-0.043-0.060-0.077-0.128-0.077-0.145 0-0.809-0.63-0.809-0.767 0-0.051 0.077-0.051 0.221 0 0.537 0.204 0.571 0.111 0.136-0.409-0.221-0.273-0.656-0.886-0.963-1.363-0.298-0.477-0.571-0.869-0.605-0.869-0.025 0-0.315 0.375-0.63 0.826-0.315 0.46-0.733 1.031-0.937 1.269-0.401 0.469-0.366 0.613 0.119 0.486 0.204-0.051 0.221-0.043 0.111 0.085-0.102 0.128-0.349 0.145-2.019 0.145-1.048 0-1.908-0.017-1.908-0.043s0.196-0.451 0.426-0.946c0.238-0.494 0.426-0.937 0.426-0.971 0-0.102-0.179-0.145-1.090-0.264-0.92-0.119-0.843 0.034-0.912-1.61-0.025-0.63-0.068-1.482-0.102-1.9l-0.051-0.741h-0.409c-0.23 0-0.417-0.025-0.417-0.068 0-0.034 0.077-0.784 0.171-1.67s0.153-1.636 0.128-1.661c-0.017-0.034-0.358-0.264-0.75-0.511l-0.724-0.443 0.29-0.912c0.162-0.503 0.451-1.423 0.647-2.045 0.196-0.613 0.366-1.125 0.375-1.125 0.017 0 0.929 1.252 2.028 2.786zM14.841 2.343c-0.298 0.929-0.545 1.755-0.545 1.832 0 0.085 0.281 0.324 0.724 0.613 0.401 0.264 0.724 0.537 0.724 0.605 0 0.128-0.204 2.113-0.298 2.914l-0.034 0.358 0.886 0.051 0.102 2.028c0.051 1.125 0.119 2.053 0.136 2.079 0.025 0.017 0.443 0.094 0.92 0.171 0.486 0.068 0.903 0.136 0.912 0.153 0.017 0.017-0.171 0.451-0.417 0.971l-0.443 0.946h-2.794c-2.743 0-2.803 0-2.888-0.179-0.085-0.162-0.085-0.171 0.077-0.085 0.094 0.051 0.264 0.094 0.392 0.094 0.221 0 0.221 0-0.153-0.469-0.213-0.255-0.639-0.869-0.954-1.363-0.324-0.494-0.605-0.895-0.63-0.895-0.025 0.008-0.298 0.375-0.605 0.835-0.307 0.451-0.716 1.031-0.912 1.269-0.204 0.247-0.366 0.469-0.366 0.494s0.145 0.043 0.324 0.043l0.315 0.008-0.298 0.255c-0.162 0.145-0.451 0.332-0.639 0.417-0.315 0.145-0.324 0.162-0.145 0.221 0.102 0.025 0.188 0.085 0.188 0.128 0 0.188-0.179 0.494-0.315 0.528s-0.128 0.051 0.043 0.102c0.145 0.051 0.188 0.128 0.188 0.349 0 0.238-0.043 0.298-0.213 0.341-0.119 0.025-0.213 0.085-0.213 0.128s0.094 0.094 0.213 0.128c0.171 0.043 0.213 0.102 0.213 0.332s-0.043 0.29-0.213 0.332c-0.273 0.068-0.273 0.188 0.008 0.256 0.196 0.051 0.213 0.094 0.188 0.417s-0.051 0.358-0.281 0.384c-0.409 0.051-0.434 0.162-0.051 0.281 0.324 0.094 0.358 0.128 0.332 0.358-0.025 0.213-0.085 0.281-0.383 0.392-0.468 0.171-0.46 0.264 0.017 0.264h0.383v1.534h-3.587l0.025-0.75 0.025-0.741 2.556-0.085-0.332-0.153c-0.179-0.077-0.341-0.145-0.366-0.145-0.017 0-0.179-0.094-0.349-0.213-0.298-0.204-0.298-0.213-0.094-0.213 0.255 0 1.014-0.247 1.014-0.332 0-0.034-0.162-0.102-0.358-0.153-0.204-0.060-0.528-0.23-0.733-0.384l-0.366-0.281 0.511-0.060c0.809-0.094 0.869-0.171 0.332-0.443-0.247-0.128-0.545-0.298-0.656-0.384l-0.204-0.153 0.52 0.008c0.733 0.008 0.843-0.136 0.29-0.375-0.238-0.102-0.494-0.256-0.579-0.349-0.145-0.153-0.136-0.162 0.273-0.162 0.656 0 0.733-0.119 0.221-0.341-0.238-0.102-0.486-0.238-0.537-0.307-0.077-0.102-0.034-0.119 0.298-0.119 0.213 0 0.392-0.043 0.392-0.085 0-0.051-0.051-0.085-0.119-0.085-0.153 0-0.733-0.537-0.733-0.673 0-0.068 0.094-0.085 0.298-0.043 0.341 0.060 0.375-0.008 0.128-0.264l-0.17-0.188 0.571-1.056 0.579-1.056 1.585-0.673 1.593-0.681 0.273-1.746c0.153-0.963 0.315-1.832 0.366-1.925 0.221-0.426 4.294-6.688 4.354-6.688 0.017 0-0.213 0.758-0.511 1.678zM5.010 13.274c0.298 0.443 0.647 0.954 0.792 1.133 0.136 0.179 0.23 0.341 0.213 0.366-0.025 0.017-0.179-0.060-0.349-0.179-0.179-0.111-0.315-0.171-0.315-0.119 0 0.179 0.281 0.639 0.579 0.946 0.255 0.273 0.281 0.324 0.136 0.324-0.085 0-0.29-0.034-0.443-0.077-0.162-0.051-0.273-0.051-0.273-0.008 0 0.102 0.852 0.681 0.997 0.681 0.060 0 0.111 0.034 0.111 0.085 0 0.111-0.434 0.111-0.733 0-0.128-0.051-0.238-0.077-0.264-0.060-0.077 0.085 0.375 0.52 0.775 0.741l0.434 0.256-0.341-0.008c-0.188 0-0.494-0.051-0.681-0.119-0.179-0.068-0.349-0.102-0.375-0.077-0.068 0.060 0.503 0.528 1.014 0.826l0.468 0.273-0.332 0.051c-0.188 0.034-0.468 0.017-0.63-0.025-0.153-0.043-0.307-0.060-0.341-0.034-0.077 0.085 0.75 0.826 1.107 0.988 0.307 0.136 0.315 0.153 0.136 0.204-0.298 0.077-0.741 0.060-0.929-0.034-0.094-0.051-0.162-0.060-0.162-0.008 0 0.102 0.537 0.571 0.877 0.75l0.273 0.153-1.167 0.025c-0.647 0.008-1.704 0.008-2.343 0l-1.167-0.025 0.341-0.221c0.366-0.247 0.826-0.681 0.767-0.733-0.017-0.017-0.179 0-0.366 0.051-0.179 0.051-0.434 0.060-0.562 0.025-0.23-0.060-0.221-0.068 0.196-0.264 0.511-0.238 1.278-0.903 0.946-0.809-0.256 0.068-0.69 0.068-1.022-0.008l-0.264-0.060 0.494-0.238c0.477-0.238 1.031-0.716 0.937-0.809-0.025-0.025-0.179 0.017-0.349 0.085-0.332 0.136-0.963 0.171-1.031 0.060-0.017-0.034 0.153-0.162 0.392-0.273 0.434-0.204 0.98-0.647 0.894-0.733-0.025-0.025-0.128-0.008-0.23 0.051-0.094 0.051-0.341 0.085-0.537 0.068l-0.358-0.025 0.469-0.264c0.486-0.273 0.835-0.597 0.741-0.681-0.025-0.025-0.119-0.008-0.213 0.043-0.102 0.051-0.341 0.094-0.545 0.085h-0.366l0.213-0.145c0.724-0.486 1.389-1.346 0.75-0.954-0.153 0.094-0.349 0.171-0.434 0.171-0.128 0-0.068-0.111 0.264-0.537 0.23-0.29 0.605-0.809 0.826-1.15s0.417-0.605 0.434-0.597c0.008 0.017 0.255 0.392 0.545 0.835zM10.914 12.924c0.171 0.273 0.52 0.792 0.775 1.15s0.443 0.647 0.409 0.647c-0.034 0-0.188-0.077-0.332-0.171-0.307-0.188-0.349-0.119-0.153 0.255l0.128 0.247-1.235 0.025c-0.681 0.017-1.235 0.008-1.235-0.017 0-0.017 0.119-0.162 0.273-0.315 0.307-0.315 0.273-0.46-0.051-0.247-0.119 0.077-0.29 0.136-0.383 0.136-0.136 0-0.068-0.128 0.375-0.724 0.298-0.401 0.647-0.903 0.784-1.107 0.128-0.213 0.264-0.383 0.29-0.383s0.188 0.221 0.358 0.503zM23.276 12.907c0.162 0.273 0.511 0.792 0.775 1.167 0.264 0.366 0.46 0.681 0.443 0.699s-0.171-0.060-0.341-0.179c-0.179-0.111-0.315-0.171-0.315-0.119 0 0.162 0.264 0.597 0.579 0.946l0.315 0.349-0.332-0.051c-0.188-0.034-0.375-0.119-0.417-0.196-0.162-0.281-0.741-0.46-1.542-0.46h-0.767l0.247-0.255c0.29-0.307 0.238-0.401-0.119-0.221-0.494 0.255-0.545 0.162-0.162-0.315 0.204-0.238 0.579-0.758 0.835-1.142s0.477-0.699 0.486-0.707c0.008 0 0.145 0.221 0.315 0.486zM29.589 12.95c0.188 0.298 0.537 0.809 0.784 1.15s0.417 0.622 0.384 0.622c-0.034 0-0.188-0.077-0.349-0.179-0.153-0.094-0.298-0.153-0.315-0.136-0.068 0.068 0.341 0.716 0.622 0.988l0.307 0.29-0.503-0.051c-0.571-0.051-0.562-0.034 0.307 0.503l0.468 0.29h-0.366c-0.204 0-0.443-0.043-0.537-0.085-0.111-0.060-0.162-0.060-0.162 0 0 0.128 0.298 0.401 0.733 0.681 0.213 0.128 0.341 0.264 0.298 0.298-0.119 0.068-0.673-0.034-0.963-0.188-0.136-0.060-0.238-0.085-0.238-0.043 0 0.128 0.451 0.511 0.963 0.809 0.349 0.213 0.451 0.307 0.349 0.349-0.213 0.085-0.792 0.060-0.98-0.034-0.281-0.153-0.188 0.060 0.188 0.434 0.188 0.188 0.503 0.417 0.699 0.503 0.298 0.136 0.332 0.171 0.188 0.221-0.221 0.085-0.622 0.085-0.937 0l-0.256-0.077 0.213 0.238c0.119 0.128 0.409 0.341 0.639 0.477l0.426 0.247h-2.104c-1.977 0-2.113-0.008-2.113-0.153 0-0.085 0.136-0.281 0.298-0.443 0.349-0.341 0.384-0.451 0.077-0.341-0.307 0.119-0.375 0.111-0.375-0.085 0-0.094 0.145-0.264 0.375-0.426 0.341-0.23 0.443-0.256 1.022-0.256h0.647l-0.017-1.048-0.017-1.039-0.025 0.997-0.034 1.005h-4.192l-0.86-0.528c-0.477-0.281-0.877-0.537-0.903-0.554-0.025-0.025 0.051-0.111 0.171-0.213l0.213-0.171-0.273 0.153c-0.153 0.085-0.256 0.179-0.238 0.204 0.025 0.034 0.247 0.188 0.511 0.349l0.477 0.29-0.051 1.874-0.724 0.051v1.61h0.767v0.937h-2.607l-0.256-0.264c-0.409-0.434-0.86-0.622-1.482-0.622-0.63 0-0.98 0.145-1.457 0.596l-0.298 0.29-1.747-0.017-1.738-0.025-0.025-2.556c-0.017-2.283-0.034-2.564-0.162-2.667-0.179-0.128-3.28-0.145-3.527-0.017-0.153 0.085-0.162 0.204-0.162 2.684v2.599h-2.3v-6.134h7.881c7.71 0 7.881 0 7.881 0.162 0 0.094-0.102 0.247-0.23 0.349-0.23 0.179-0.221 0.179 0.102-0.008 0.188-0.111 0.477-0.281 0.639-0.392 0.29-0.196 0.341-0.196 2.437-0.196 1.644 0 2.164 0.025 2.19 0.102 0.025 0.068 0.051 0.051 0.051-0.043 0.008-0.128-0.085-0.145-0.818-0.145h-0.826l0.332-0.341c0.358-0.366 0.332-0.392-0.256-0.238-0.204 0.060-0.401 0.077-0.434 0.051-0.025-0.034 0.204-0.307 0.528-0.613 0.596-0.571 0.673-0.767 0.213-0.528-0.528 0.281-0.52 0.145 0.043-0.613 0.307-0.409 0.656-0.903 0.775-1.107 0.119-0.196 0.238-0.358 0.264-0.358 0.034 0 0.213 0.238 0.401 0.528zM23.387 15.276c0.341 0.145 0.622 0.366 0.622 0.486 0 0.034-3.468 0.068-7.71 0.068s-7.71-0.034-7.71-0.068c0-0.128 0.401-0.451 0.647-0.528 0.136-0.034 3.306-0.077 7.046-0.077 5.93-0.008 6.833 0.008 7.105 0.119zM27.689 15.923c-0.29 0.196-0.417 0.171-0.332-0.051 0.034-0.077 0.162-0.128 0.332-0.128h0.281l-0.281 0.179zM24.094 15.949c0 0.017 0.025 0.094 0.051 0.17 0.051 0.128-0.681 0.136-7.838 0.136-6.518 0-7.889-0.017-7.889-0.111 0-0.068 0.025-0.145 0.060-0.171 0.060-0.060 15.616-0.085 15.616-0.025zM24.571 16.213c0.136 0.111 0.145 0.136 0.034 0.213-0.179 0.119-0.29 0.060-0.324-0.153-0.034-0.221 0.060-0.238 0.29-0.060zM14.381 17.32c0.051 0.034 0.085 1.133 0.085 2.99v2.931h-3.663l0.017-2.965 0.025-2.956 1.576-0.043c1.661-0.043 1.823-0.043 1.96 0.043zM3.007 17.619c-0.025 0.043-0.136 0.128-0.238 0.179-0.188 0.102-0.188 0.102-0.025-0.085 0.162-0.179 0.366-0.256 0.264-0.094zM24.605 18.309c0 0.034-0.077 0.043-0.171 0.017s-0.171-0.102-0.171-0.162c0-0.102 0.034-0.102 0.171-0.017 0.094 0.060 0.171 0.136 0.171 0.162zM2.854 18.556c0.179 0 0.196 0.017 0.111 0.128-0.145 0.179-0.937 0.554-1.176 0.554-0.196 0-0.196 0 0.085-0.392 0.247-0.341 0.307-0.384 0.528-0.341 0.128 0.025 0.341 0.051 0.451 0.051zM26.019 18.556h0.63v0.29c0 0.221-0.043 0.298-0.188 0.341l-0.196 0.060 0.196 0.094c0.153 0.077 0.188 0.162 0.188 0.46 0 0.324-0.025 0.375-0.213 0.426-0.119 0.025-0.213 0.085-0.213 0.128s0.094 0.077 0.213 0.077c0.213 0 0.213 0.008 0.213 0.767v0.767h-2.386v-1.534h0.835l0.826-0.008-0.605-0.281c-0.332-0.153-0.63-0.324-0.656-0.366-0.034-0.051 0.085-0.111 0.281-0.145 0.366-0.060 0.767-0.213 0.767-0.307 0-0.025-0.171-0.094-0.384-0.153-0.23-0.060-0.52-0.23-0.707-0.409l-0.315-0.307 0.545 0.051c0.298 0.025 0.826 0.051 1.167 0.051zM27.672 18.684c-0.060 0.068-0.162 0.128-0.221 0.128-0.068 0-0.119-0.060-0.119-0.128 0-0.085 0.085-0.128 0.221-0.128 0.188 0 0.213 0.017 0.119 0.128zM25.125 19.263l0.29 0.119-0.221 0.060c-0.119 0.034-0.366 0.051-0.554 0.034-0.324-0.025-0.332-0.034-0.358-0.401l-0.025-0.375 0.29 0.221c0.162 0.119 0.417 0.273 0.579 0.341zM2.488 19.578c0.281 0 0.315 0.017 0.221 0.128-0.060 0.077-0.384 0.264-0.716 0.426l-0.605 0.298h2.513v1.534h-2.181c-1.738 0-2.164-0.025-2.104-0.111 0.051-0.051 0.494-0.647 0.988-1.303l0.912-1.21 0.315 0.119c0.179 0.060 0.469 0.111 0.656 0.119zM27.544 19.578c-0.025 0.043-0.094 0.085-0.136 0.085-0.051 0-0.060-0.043-0.034-0.085 0.025-0.051 0.094-0.085 0.136-0.085 0.051 0 0.060 0.034 0.034 0.085zM25.193 20.311c0.017 0.017-0.179 0.034-0.443 0.034h-0.486v-0.673l0.451 0.307c0.238 0.162 0.46 0.315 0.477 0.332zM24.179 20.729v0.724h-0.681v-1.448h0.681v0.724zM4.652 21.214l-0.025 0.792-0.273 0.025-0.281 0.025v-1.627h0.605l-0.025 0.784zM28.694 21.197v0.767h-1.363v-1.534h1.363v0.767zM29.376 21.197v0.767h-0.596v-1.534h0.596v0.767zM31.514 21.163c0.46 0.401 0.843 0.75 0.843 0.767s-0.63 0.034-1.406 0.034h-1.406v-1.534h1.116l0.852 0.733zM10.718 22.773v0.213h-2.3v-0.426h2.3v0.213zM18.045 22.611c0 0.025-0.043 0.119-0.085 0.213-0.085 0.153-0.196 0.162-1.747 0.162h-1.661v-0.426h1.747c0.963 0 1.747 0.025 1.747 0.051zM24.179 22.773v0.213h-1.235c-0.69 0-1.235-0.034-1.235-0.077s-0.025-0.136-0.051-0.213c-0.043-0.119 0.094-0.136 1.235-0.136h1.286v0.213zM10.718 23.157c0 0.051-0.443 0.085-1.15 0.085s-1.15-0.034-1.15-0.085c0-0.051 0.443-0.085 1.15-0.085s1.15 0.034 1.15 0.085zM17.874 23.157c0 0.051-0.613 0.085-1.661 0.085s-1.661-0.034-1.661-0.085c0-0.051 0.613-0.085 1.661-0.085s1.661 0.034 1.661 0.085zM24.179 23.157c0 0.051-0.451 0.085-1.193 0.085s-1.193-0.034-1.193-0.085c0-0.051 0.451-0.085 1.193-0.085s1.193 0.034 1.193 0.085z"></path>
    <path d="M26.82 16.468c0 0.068 0.077 0.128 0.171 0.128s0.171-0.060 0.171-0.128c0-0.068-0.077-0.128-0.171-0.128s-0.171 0.060-0.171 0.128z"></path>
    <path d="M15.531 17.559c-0.025 0.060-0.034 0.724-0.025 1.465l0.025 1.363h3.237v-2.897l-1.602-0.025c-1.252-0.017-1.61 0-1.636 0.094zM18.684 18.939v1.363h-3.067l-0.025-1.278c-0.008-0.699 0-1.32 0.017-1.38 0.034-0.094 0.375-0.111 1.559-0.094l1.516 0.025v1.363z"></path>
    <path d="M19.382 17.508c-0.102 0.094-0.068 2.82 0.025 2.88 0.119 0.077 3.033 0.077 3.144 0 0.102-0.060 0.136-2.564 0.043-2.803-0.043-0.119-0.264-0.136-1.602-0.136-0.86 0-1.585 0.025-1.61 0.060zM22.475 17.636c0 0.060 0.008 0.681 0.008 1.389l0.008 1.278h-3.042l-0.025-1.278c-0.008-0.699 0-1.32 0.017-1.38 0.060-0.162 3.033-0.162 3.033-0.008z"></path>
    <path d="M26.854 18.138c-0.085 0.145 0.111 0.307 0.23 0.188 0.102-0.102 0.034-0.281-0.094-0.281-0.043 0-0.102 0.043-0.136 0.094zM27.076 18.215c0 0.043-0.034 0.085-0.085 0.085-0.043 0-0.085-0.043-0.085-0.085 0-0.051 0.043-0.085 0.085-0.085 0.051 0 0.085 0.034 0.085 0.085z"></path>
    <path d="M11.519 17.985c-0.017 0.060-0.025 0.528-0.017 1.048l0.025 0.929 2.181 0.051-0.051-2.096-1.048-0.025c-0.809-0.017-1.056 0-1.090 0.094zM13.478 18.011c0.111 0.043 0.136 0.213 0.136 0.98v0.929h-2.045v-0.92c0-0.511 0.025-0.954 0.060-0.98 0.068-0.077 1.67-0.077 1.849-0.008z"></path>
    <path d="M11.204 20.49c-0.034 0.025-0.060 0.102-0.060 0.171 0 0.077 0.145 0.111 0.537 0.111 0.579 0 0.673-0.034 0.597-0.221-0.043-0.128-0.963-0.179-1.073-0.060zM12.166 20.601c0 0.043-0.213 0.085-0.477 0.085-0.29 0-0.451-0.034-0.417-0.085 0.025-0.051 0.238-0.085 0.477-0.085 0.23 0 0.417 0.034 0.417 0.085z"></path>
    <path d="M19.169 22.475c-0.852 0.52-0.809 1.764 0.077 2.215 0.417 0.221 0.784 0.213 1.184-0.008 0.613-0.349 0.843-1.099 0.52-1.695-0.341-0.647-1.167-0.886-1.781-0.511zM20.439 22.586c0.818 0.545 0.724 1.653-0.171 2.053-0.818 0.375-1.704-0.29-1.602-1.201 0.043-0.392 0.358-0.826 0.699-0.963 0.324-0.136 0.775-0.094 1.073 0.111z"></path>
    <path d="M19.493 22.926c-0.681 0.349-0.434 1.338 0.324 1.338 0.426 0 0.699-0.273 0.699-0.699 0-0.554-0.537-0.895-1.022-0.639zM20.209 23.080c0.153 0.119 0.221 0.256 0.221 0.451 0 0.417-0.204 0.647-0.588 0.647-0.358 0-0.554-0.162-0.647-0.528-0.051-0.188-0.008-0.281 0.196-0.494 0.307-0.298 0.511-0.324 0.818-0.077z"></path>
    <path d="M26.667 23.582c0 0.162 0.017 0.23 0.043 0.145 0.017-0.077 0.017-0.213 0-0.298-0.025-0.077-0.043-0.008-0.043 0.153z"></path>
    <path d="M7.548 24.009l0.034 0.256h-2.564c-1.653 0-2.564 0.034-2.564 0.085s0.912 0.085 2.564 0.085h2.573l-0.051 0.528c-0.025 0.324-0.017 0.451 0.025 0.324 0.094-0.281 0.102-1.534 0.017-1.534-0.043 0-0.060 0.111-0.034 0.256z"></path>
    <path d="M21.538 25.116c0.128 0.085 0.835 0.119 0.758 0.043-0.025-0.017-0.23-0.060-0.468-0.077-0.281-0.034-0.375-0.017-0.29 0.034z"></path>
    <path d="M24.264 25.116l-1.832 0.043 2.138 0.043c1.67 0.034 2.138 0.017 2.138-0.068 0-0.068-0.111-0.094-0.307-0.085-0.171 0.008-1.133 0.043-2.138 0.068z"></path>
    <path d="M29.529 25.176c0.060 0.025 0.136 0.017 0.162-0.008 0.034-0.025-0.017-0.051-0.111-0.043-0.094 0-0.119 0.025-0.051 0.051z"></path>
    <path d="M7.932 26.028c1.951 0.017 5.154 0.017 7.114 0 1.951-0.008 0.349-0.017-3.561-0.017s-5.512 0.008-3.553 0.017z"></path>
    <path d="M23.651 26.028c1.142 0.017 2.982 0.017 4.090 0 1.107-0.008 0.179-0.017-2.070-0.017s-3.161 0.008-2.019 0.017z"></path>
    <path d="M22.091 27.246c-0.025 0.043-0.008 0.145 0.043 0.23 0.077 0.119 0.034 0.341-0.213 1.048-0.366 1.048-0.477 1.252-0.741 1.303l-0.196 0.034 0.188 0.017c0.307 0.017 0.468-0.256 0.826-1.312l0.332-0.997 0.349 0.051c0.188 0.034 0.392 0.102 0.451 0.153 0.162 0.128 0.136 0.511-0.060 1.022-0.204 0.545-0.221 0.971-0.034 1.039 0.298 0.111 0.647 0.051 0.826-0.153l0.179-0.204 0.196 0.204c0.153 0.171 0.273 0.204 0.656 0.204 0.401 0 0.511-0.034 0.758-0.256 0.162-0.145 0.315-0.332 0.341-0.426 0.060-0.247 0-0.213-0.153 0.085-0.171 0.324-0.537 0.511-1.005 0.511-0.46 0-0.656-0.188-0.664-0.647v-0.332l-0.128 0.332c-0.179 0.511-0.358 0.656-0.707 0.63-0.384-0.034-0.426-0.247-0.179-0.954 0.298-0.869 0.196-1.167-0.443-1.286-0.204-0.043-0.324-0.111-0.349-0.221-0.043-0.171-0.188-0.213-0.273-0.077zM22.305 27.331c0 0.043-0.034 0.085-0.085 0.085-0.043 0-0.085-0.043-0.085-0.085 0-0.051 0.043-0.085 0.085-0.085 0.051 0 0.085 0.034 0.085 0.085z"></path>
    <path d="M24.997 27.348c-0.221 0.128-0.409 0.332-0.528 0.579-0.213 0.417-0.375 1.014-0.204 0.741 0.077-0.119 0.221-0.145 0.903-0.145 0.741 0 0.826-0.017 1.014-0.213 0.256-0.247 0.281-0.622 0.060-0.895-0.23-0.281-0.818-0.315-1.244-0.068zM26.198 27.467c0.162 0.221 0.136 0.605-0.060 0.801-0.145 0.145-0.281 0.171-0.988 0.171-0.801 0-0.809 0-0.758-0.196 0.085-0.29 0.324-0.596 0.647-0.809 0.23-0.162 0.366-0.196 0.664-0.162 0.23 0.025 0.426 0.102 0.494 0.196z"></path>
    <path d="M11.357 27.45c-0.417 0.256-0.562 0.494-0.809 1.372-0.204 0.716-0.417 1.031-0.716 1.090l-0.179 0.034 0.179 0.017c0.102 0 0.281-0.085 0.409-0.204l0.221-0.204 0.221 0.221c0.196 0.188 0.273 0.213 0.681 0.179 0.332-0.025 0.52-0.094 0.681-0.247 0.247-0.23 0.409-0.494 0.349-0.562-0.025-0.025-0.111 0.077-0.179 0.221-0.171 0.324-0.537 0.52-0.98 0.52-0.571 0-0.835-0.46-0.605-1.056 0.077-0.213 0.102-0.221 0.895-0.221 0.75 0 0.835-0.017 1.022-0.213 0.281-0.273 0.29-0.707 0.017-0.963s-0.767-0.247-1.21 0.017zM12.524 27.476c0.204 0.188 0.204 0.656-0.017 0.877-0.145 0.145-0.281 0.171-0.971 0.171h-0.809l0.077-0.264c0.213-0.724 1.261-1.201 1.721-0.784z"></path>
    <path d="M13.103 27.323c0.171 0.043 0.264 0.196 0.486 0.775l0.264 0.716-0.247 0.358c-0.281 0.409-0.63 0.716-0.826 0.716-0.068 0-0.102 0.025-0.077 0.051 0.119 0.119 0.562-0.162 0.826-0.528 0.162-0.204 0.315-0.375 0.341-0.375 0.034 0 0.145 0.196 0.247 0.426 0.196 0.434 0.409 0.571 0.75 0.486 0.094-0.025 0.043-0.043-0.111-0.051-0.307-0.008-0.469-0.171-0.664-0.681l-0.145-0.375 0.401-0.605c0.221-0.332 0.426-0.613 0.46-0.63 0.119-0.043-0.017-0.358-0.145-0.358-0.094 0-0.111 0.060-0.077 0.204 0.034 0.153-0.034 0.341-0.29 0.724-0.188 0.29-0.358 0.52-0.383 0.52-0.017 0-0.111-0.238-0.204-0.537-0.23-0.673-0.392-0.912-0.63-0.903-0.171 0.008-0.171 0.017 0.025 0.068z"></path>
    <path d="M15.804 27.945c-0.136 0.392-0.451 1.355-0.707 2.155-0.255 0.792-0.545 1.559-0.639 1.704l-0.171 0.255 0.196-0.221c0.119-0.128 0.341-0.639 0.528-1.201l0.315-0.98 0.247 0.238c0.392 0.401 1.039 0.315 1.525-0.204 0.204-0.221 0.613-1.32 0.596-1.636 0-0.094-0.051 0-0.111 0.213-0.264 0.937-0.358 1.159-0.622 1.414-0.46 0.46-1.21 0.494-1.406 0.068-0.128-0.273 0.017-1.014 0.29-1.559 0.332-0.63 1.167-0.903 1.585-0.52 0.102 0.102 0.188 0.136 0.188 0.094 0-0.162-0.384-0.349-0.716-0.349-0.188 0-0.451 0.077-0.622 0.188l-0.298 0.179 0.060-0.264c0.102-0.468 0-0.298-0.238 0.426z"></path>
    <path d="M20.217 27.408c-0.426 0.264-0.613 0.537-0.801 1.15-0.23 0.75-0.221 0.946 0.034 1.201 0.366 0.375 1.21 0.213 1.576-0.298 0.247-0.341 0.213-0.401-0.051-0.085-0.434 0.511-1.142 0.681-1.482 0.341-0.213-0.213-0.213-0.434 0-1.133 0.264-0.86 0.673-1.252 1.32-1.252 0.588 0 0.767 0.434 0.503 1.227-0.077 0.221-0.119 0.417-0.094 0.443 0.060 0.060 0.315-0.835 0.315-1.108 0-0.554-0.758-0.835-1.32-0.486z"></path>
    <path d="M15.233 27.502c-0.196 0.060-0.196 0.068-0.025 0.077 0.102 0.008 0.213-0.034 0.238-0.077 0.025-0.051 0.043-0.085 0.025-0.077s-0.119 0.043-0.238 0.077z"></path>
    <path d="M17.968 28.797c-0.213 0.741-0.221 0.869-0.043 1.039 0.29 0.298 0.895 0.017 1.014-0.46 0.034-0.153 0-0.119-0.128 0.102-0.188 0.341-0.52 0.494-0.758 0.349-0.204-0.128-0.213-0.315-0.008-0.971 0.102-0.332 0.171-0.613 0.153-0.639-0.025-0.017-0.128 0.238-0.23 0.579z"></path>
    <path d="M25.269 30.569c-0.017 0.188-0.017 0.494 0 0.681l0.034 0.332 0.46-0.315c0.247-0.171 0.451-0.332 0.46-0.358 0-0.051-0.818-0.681-0.886-0.681-0.017 0-0.051 0.153-0.068 0.341z"></path>
    <path d="M9.482 30.39c-0.025 0.051-0.017 0.162 0.025 0.238 0.085 0.162 0.077 0.409-0.025 0.639-0.051 0.128-0.017 0.153 0.221 0.153 0.23 0 0.315-0.051 0.434-0.256 0.136-0.247 0.136-0.273-0.008-0.537-0.153-0.281-0.528-0.417-0.647-0.238z"></path>
    <path d="M10.496 30.867c0.008 0.545 0.008 0.554 0.238 0.554 0.179 0 0.273-0.068 0.375-0.273 0.128-0.247 0.128-0.29 0-0.554-0.102-0.221-0.188-0.281-0.375-0.281-0.238 0-0.238 0-0.238 0.554z"></path>
    <path d="M15.812 30.884c0.247 0.017 0.63 0.017 0.852 0s0.017-0.025-0.451-0.025c-0.469 0-0.647 0.008-0.401 0.025z"></path>
    <path d="M24.758 30.884c0.060 0.025 0.136 0.017 0.162-0.008 0.034-0.025-0.017-0.051-0.111-0.043-0.094 0-0.119 0.025-0.051 0.051z"></path>
    <path d="M13.632 31.565c-0.017 0.375 0.128 0.545 0.469 0.528 0.085 0 0.034-0.042-0.119-0.085-0.238-0.068-0.273-0.119-0.307-0.443l-0.034-0.358-0.008 0.358z"></path>
  </symbol>
  <symbol id="star" fill="current" viewBox="0 0 32 32">
    <path d="M32 12.408l-11.056-1.607-4.944-10.018-4.944 10.018-11.056 1.607 8 7.798-1.889 11.011 9.889-5.199 9.889 5.199-1.889-11.011 8-7.798z"></path>
  </symbol>
  <symbol id="icon-map-pin" viewBox="0 0 29 32" stroke="cuurent">
    <path stroke-linejoin="round" stroke-linecap="round" stroke-miterlimit="4" stroke-width="2.4" d="M26.4 13.333c0 9.333-12 17.333-12 17.333s-12-8-12-17.333c0-3.183 1.264-6.235 3.515-8.485s5.303-3.515 8.485-3.515c3.183 0 6.235 1.264 8.485 3.515s3.515 5.303 3.515 8.485z"></path>
    <path stroke-linejoin="round" stroke-linecap="round" stroke-miterlimit="4" stroke-width="2.4" d="M14.4 17.333c2.209 0 4-1.791 4-4s-1.791-4-4-4c-2.209 0-4 1.791-4 4s1.791 4 4 4z"></path>
  </symbol>

</svg>


